<svg width="136" height="69" viewBox="0 0 136 69" fill="none" xmlns="http://www.w3.org/2000/svg">
<g id="Group">
<g id="Group_2">
<path id="Vector" d="M35.3185 30.578H38.4477C40.1769 30.578 41.578 31.8473 41.578 33.4149C41.578 34.9816 40.1769 36.2518 38.4477 36.2518H35.3185V30.578ZM35.3185 39.0896H37.397L41.578 46.6571H45.9553L41.5681 38.7686C44.0043 37.9914 45.7506 35.8885 45.7506 33.4149C45.7506 30.2806 42.9485 27.7402 39.4911 27.7402H31.1443V34.5624V39.0901V46.6576H35.318V39.0896H35.3185Z" fill="#0088C2"/>
</g>
<path id="Vector_2" d="M52.0117 27.7393H47.8385V46.6561H52.0117V27.7393Z" fill="#0088C2"/>
<path id="Vector_3" d="M104.179 27.7393H100.006V46.6561H104.179V27.7393Z" fill="#0088C2"/>
<path id="Vector_4" d="M110.808 35.3058L117.068 46.6571H121.241V27.7402H117.068V39.0896L110.808 27.7402H106.634V46.6571H110.808V35.3058Z" fill="#0088C2"/>
<path id="Vector_5" d="M87.4847 42.8738H77.0511V39.0896H83.3121V35.3068H77.0511V31.5235H87.4847V27.7402H77.0511H72.8784V31.5235V35.3068V39.0896V42.8738V46.6571H87.4847V42.8738Z" fill="#0088C2"/>
<path id="Vector_6" d="M95.8321 37.1982H89.5726V40.9806H95.8321V37.1982Z" fill="#0088C2"/>
<path id="Vector_7" d="M60.3616 46.6571H64.5285H64.5347L70.788 27.7402H66.6143L62.4442 40.3555L58.2742 27.7402H54.1016L60.3548 46.6571H60.3616Z" fill="#0088C2"/>
<g id="Group_3">
<path id="Vector_8" d="M18.6254 31.5263C18.6549 31.5254 18.6839 31.5235 18.7145 31.5235C22.1226 31.5235 24.8848 34.0648 24.8848 37.1982C24.8848 40.3325 22.1226 42.8738 18.7145 42.8738C18.6839 42.8738 18.6549 42.8719 18.6254 42.8719V31.5263ZM29.0596 37.1982C29.0596 31.9751 24.3878 27.7402 18.6259 27.7402H14.4512V46.6571H18.6259C24.3878 46.6571 29.0596 42.4222 29.0596 37.1982Z" fill="#0088C2"/>
<path id="Vector_9" d="M126.142 51.5221H9.85762L3.58674 23.096H132.413L126.142 51.5221ZM44.788 17.559C45.4059 17.0797 46.5509 16.0906 47.6565 15.1037C47.5845 15.2532 47.5114 15.4012 47.4419 15.5506C46.8666 16.7898 46.3332 18.1709 46.8324 19.513C46.9008 19.6967 46.9905 19.8771 47.0998 20.0463H41.4235C42.5903 19.2719 43.6938 18.4082 44.788 17.559ZM55.2445 19.3067C55.7639 18.9843 56.2662 18.6394 56.7622 18.2888C58.043 17.3866 61.4091 14.6536 62.8418 13.484C62.8258 13.514 62.8097 13.5455 62.7931 13.5756C62.3992 14.3162 62.0021 15.0568 61.6258 15.8049C61.236 16.5793 60.8452 17.4561 60.8156 18.3142C60.8032 19.0468 61.2827 19.7827 62.0353 20.0463H53.9487C54.3929 19.816 54.8252 19.5665 55.2445 19.3067ZM97.441 6.37557C97.8453 5.67446 98.3818 5.03725 98.9836 4.46583C99.5922 3.8869 100.695 2.98185 101.661 3.19848C101.882 3.24782 102.142 3.5152 102.236 3.69142C102.797 4.73932 101.489 5.77689 100.719 6.37603C100.395 6.62838 100.058 6.86804 99.7233 7.10863C99.3931 7.34735 99.0588 7.5823 98.7182 7.80974C97.9952 8.29234 97.2264 8.71667 96.4178 9.07193C96.5915 8.13257 96.9559 7.21295 97.441 6.37557ZM135.467 20.8273C135.019 20.3306 134.356 20.0463 133.648 20.0463H63.9837C65.1272 19.7554 66.181 19.044 67.1 18.4373C67.4613 18.1986 67.7961 17.9232 68.1341 17.6591C68.7167 17.2029 69.2936 16.7405 69.8705 16.2781C70.5501 15.7339 71.2244 15.186 71.9004 14.6371C72.5436 14.116 73.1869 13.5934 73.826 13.0667C74.4241 12.5747 75.7164 11.4018 76.286 10.8647C76.2378 10.9591 76.1886 11.0536 76.1414 11.1485C75.777 11.8844 75.4054 12.616 75.0591 13.3594C74.4843 14.5995 73.9509 15.9806 74.4495 17.3217C74.5719 17.6511 74.7543 17.9735 75.0177 18.2287C75.8418 19.0271 77.2232 19.1163 78.3433 18.9627C78.6823 18.9166 79.0234 18.8433 79.3515 18.7507C80.61 18.3964 81.7794 17.787 82.8617 17.1159C83.3811 16.7926 83.8833 16.4486 84.3799 16.0981C85.7359 15.1418 89.4285 12.1358 90.6902 11.1043C90.5544 12.4313 90.6985 13.8035 91.3936 14.9717C91.9715 15.9425 92.8729 16.9237 94.0319 17.3288C96.2758 18.1107 99.0116 16.9515 100.869 15.8457C102.388 14.9416 103.776 13.8411 105.155 12.7711C106.573 11.6724 109.955 8.46386 110.074 8.18379L111.459 4.46771C109.987 6.0673 106.737 9.40557 105.426 10.383C103.883 11.5301 102.079 12.9619 100.112 13.4468C99.5865 13.5761 98.9691 13.6231 98.4285 13.5366C97.5991 13.4055 96.9077 12.8961 96.593 12.1931C96.5153 12.0188 96.4583 11.8407 96.4127 11.6607C96.6889 11.5155 96.9543 11.3679 97.2037 11.2194C98.0123 10.7387 98.7804 10.2035 99.5284 9.64804C100.821 8.68895 102.097 7.70683 103.317 6.67161C103.664 6.37791 104.006 6.07952 104.342 5.77502C104.936 5.23462 105.522 4.65897 105.867 3.95316C106.135 3.40524 106.266 2.68862 106.14 2.09182C105.732 0.160008 103.482 -0.192424 101.652 0.0820056C98.3502 0.578705 95.5507 2.50394 93.5379 4.85633C92.8387 5.67304 92.2245 6.56447 91.7476 7.50947C91.5553 7.65091 91.363 7.79236 91.1707 7.93427C89.5488 9.13584 87.9404 10.352 86.1739 11.3787C85.485 11.78 84.7733 12.1517 84.0337 12.4708C83.7123 12.6094 83.3894 12.7434 83.0654 12.8764C82.7902 12.9873 82.1961 13.2382 81.9318 12.9638C81.6223 12.6452 82.1407 11.8129 82.2848 11.5009C82.5735 10.8769 84.0383 7.8088 84.3846 6.86521C84.8402 5.62605 85.5457 3.53447 83.8662 2.73984C82.9757 2.3188 82.0261 2.67123 81.2725 3.13363C80.4333 3.64959 79.6589 4.24779 78.9073 4.86291C78.4651 5.22521 78.0266 5.59081 77.5917 5.95969C77.1978 6.29474 76.7867 6.62133 76.4135 6.97564C76.0564 7.28673 75.6998 7.60063 75.3473 7.91641C74.4013 8.76555 73.4554 9.61421 72.5255 10.4779C71.7879 11.1626 71.0461 11.8435 70.3173 12.5366C69.9799 12.8571 69.6316 13.1701 69.3045 13.4966C69.2962 13.5051 69.2884 13.5131 69.2812 13.5216C69.2812 13.5216 71.538 8.69224 71.7293 8.21857C71.9895 7.5715 72.2487 6.9061 72.3643 6.22425C72.4591 5.65613 72.5037 4.98086 72.1839 4.46113C72.0108 4.18107 71.6889 3.90851 71.3711 3.76002C70.5014 3.35542 69.5092 3.67637 68.767 4.15475C67.8096 4.77127 67.1041 5.64437 66.5459 6.56212C66.0815 7.32291 65.6497 8.09874 65.2309 8.88162C65.1407 8.94599 65.0505 9.00661 64.9821 9.05971C64.5145 9.42296 64.0319 9.77304 63.554 10.1264C61.9321 11.328 60.3232 12.5441 58.5572 13.5709C57.8678 13.9722 57.1572 14.3444 56.417 14.663C56.0962 14.8016 55.7722 14.9355 55.4482 15.0685C55.1735 15.1794 54.5795 15.4303 54.3146 15.1559C54.0062 14.8373 54.5235 14.006 54.6676 13.6931C54.9568 13.069 56.4212 10.001 56.7674 9.05737C57.223 7.8182 57.9295 5.72661 56.2491 4.93199C55.3793 4.51987 54.3893 4.84364 53.6491 5.32859C52.6933 5.95264 51.9909 6.83749 51.4342 7.76792C50.9242 8.61941 50.4805 9.50143 50.0352 10.3825C48.4071 12.0878 46.1108 14.3885 45.0591 15.1714C43.5171 16.3194 41.7122 17.7503 39.7461 18.2357C39.2195 18.365 38.6022 18.411 38.0615 18.3255C37.2327 18.1934 36.5412 17.684 36.2261 16.982C35.8674 16.1799 35.8876 15.3096 35.9649 14.4637C36.069 13.3167 36.4863 12.1814 37.0741 11.1645C37.4794 10.4643 38.0149 9.82709 38.6162 9.25567C39.2263 8.67674 40.3277 7.77168 41.295 7.98831C41.7262 8.08558 42.0326 8.73171 41.8952 9.10811C41.7298 9.5644 41.1426 9.9596 41.4328 10.4958C41.8418 11.2509 42.7437 10.9765 43.3875 10.6635C43.4538 10.6306 43.5171 10.5982 43.5772 10.5663C44.4003 10.1255 45.1063 9.54936 45.5008 8.74158C45.7687 8.1946 45.8994 7.47798 45.7734 6.88119C45.3655 4.94937 43.1148 4.59694 41.2846 4.87231C37.9833 5.36807 35.1837 7.29331 33.1715 9.6457C31.9446 11.0794 30.9779 12.7406 30.557 14.5201C30.1527 16.2301 30.0858 18.1822 31.0261 19.7615C31.0826 19.8569 31.1453 19.9523 31.2086 20.0477H2.35205C1.64503 20.0477 0.98156 20.3315 0.533196 20.8278C0.0848313 21.3235 -0.0929609 21.9687 0.0464726 22.5975L6.72218 52.8599C6.94092 53.8529 7.91177 54.5732 9.02827 54.5732H126.971C128.088 54.5732 129.059 53.8529 129.278 52.8599L135.954 22.5975C136.093 21.9673 135.915 21.3221 135.467 20.8273Z" fill="#0088C2"/>
<g id="Group_4">
<path id="Vector_10" d="M17.6311 62.4899V61.8362C17.6311 61.4772 17.5534 61.2188 17.3989 61.059C17.2444 60.8992 17.0641 60.8193 16.8578 60.8193C16.5307 60.8193 16.3073 60.8955 16.1875 61.0468C16.0673 61.199 16.0066 61.434 16.0066 61.7535V66.0307C16.0066 66.3502 16.0668 66.5861 16.1875 66.7374C16.3073 66.8897 16.5307 66.9658 16.8578 66.9658C17.1491 66.9658 17.3517 66.8915 17.4632 66.7435C17.5751 66.596 17.6311 66.3845 17.6311 66.112V65.096H19.2292V66.065C19.2292 66.3615 19.1794 66.6416 19.0809 66.9066C18.9819 67.1716 18.8357 67.4014 18.6424 67.5959C18.4491 67.7905 18.2018 67.9446 17.9012 68.0574C17.6005 68.1702 17.2522 68.227 16.8572 68.227C16.4363 68.227 16.0725 68.1702 15.7677 68.0574C15.4629 67.9446 15.2089 67.7905 15.0073 67.5959C14.8046 67.4014 14.6548 67.1721 14.5558 66.9066C14.4573 66.6416 14.4081 66.3615 14.4081 66.065V61.7183C14.4081 61.4227 14.4573 61.1417 14.5558 60.8776C14.6548 60.6126 14.8046 60.3828 15.0073 60.1873C15.2089 59.9927 15.4629 59.8395 15.7677 59.7268C16.0725 59.614 16.4358 59.5571 16.8572 59.5571C17.2522 59.5571 17.6005 59.6196 17.9012 59.7442C18.2018 59.8682 18.4491 60.036 18.6424 60.246C18.8357 60.4561 18.9814 60.7023 19.0809 60.9819C19.1794 61.2629 19.2292 61.5585 19.2292 61.8705V62.4889H17.6311V62.4899Z" fill="#0088C2"/>
<path id="Vector_11" d="M21.0724 68.1107V59.6743H22.6709V68.1107H21.0724Z" fill="#0088C2"/>
<path id="Vector_12" d="M24.4364 68.1107V59.6743H25.9183L27.8647 64.5003H27.8906V59.6743H29.3342V68.1107H27.9419L25.9049 62.8406H25.8795V68.1107H24.4364Z" fill="#0088C2"/>
<path id="Vector_13" d="M30.8815 68.1107V59.6743H35.1604V60.9365H32.479V63.1099H34.5415V64.3721H32.479V66.849H35.3407V68.1112H30.8815V68.1107Z" fill="#0088C2"/>
<path id="Vector_14" d="M43.009 59.6743V68.1107H41.6168V61.5211H41.5909L40.1473 68.1107H39.3739L37.9309 61.5211H37.905V68.1107H36.5127V59.6743H38.6135L39.7477 64.6056H39.7736L40.9077 59.6743H43.009Z" fill="#0088C2"/>
<path id="Vector_15" d="M45.4064 68.1107H43.8602L45.5744 59.6743H47.5596L49.2738 68.1107H47.727L47.4435 66.2409H45.691L45.4064 68.1107ZM45.9222 64.9792H47.2108L46.5789 61.3575H46.5535L45.9222 64.9792Z" fill="#0088C2"/>
<path id="Vector_16" d="M53.0623 68.1107V59.6743H57.5221V60.9365H54.6603V63.1099H56.8V64.3721H54.6603V68.1112H53.0623V68.1107Z" fill="#0088C2"/>
<path id="Vector_17" d="M58.7848 61.7192C58.7848 61.4237 58.8345 61.1427 58.933 60.8786C59.0315 60.6135 59.1818 60.3837 59.384 60.1883C59.5861 59.9937 59.8396 59.8405 60.1444 59.7277C60.4497 59.615 60.8125 59.5581 61.2339 59.5581C61.6554 59.5581 62.0182 59.615 62.3235 59.7277C62.6283 59.8405 62.8817 59.9937 63.0839 60.1883C63.2855 60.3837 63.4364 60.6131 63.5354 60.8786C63.6333 61.1427 63.6831 61.4237 63.6831 61.7192V66.0659C63.6831 66.3625 63.6333 66.6425 63.5354 66.9076C63.4364 67.1726 63.2855 67.4024 63.0839 67.5969C62.8817 67.7915 62.6283 67.9456 62.3235 68.0584C62.0182 68.1712 61.6554 68.228 61.2339 68.228C60.8125 68.228 60.4497 68.1712 60.1444 68.0584C59.8396 67.9456 59.5861 67.7915 59.384 67.5969C59.1818 67.4024 59.0315 67.1731 58.933 66.9076C58.8345 66.6421 58.7848 66.3625 58.7848 66.0659V61.7192ZM60.3834 66.0307C60.3834 66.3502 60.443 66.5861 60.5637 66.7374C60.684 66.8897 60.9074 66.9658 61.2339 66.9658C61.5605 66.9658 61.7839 66.8897 61.9042 66.7374C62.0244 66.5861 62.0845 66.3502 62.0845 66.0307V61.7535C62.0845 61.434 62.0249 61.199 61.9042 61.0468C61.7839 60.8955 61.5605 60.8194 61.2339 60.8194C60.9074 60.8194 60.684 60.8955 60.5637 61.0468C60.4435 61.199 60.3834 61.434 60.3834 61.7535V66.0307Z" fill="#0088C2"/>
<path id="Vector_18" d="M66.8268 68.1107H65.2292V59.6743H67.4716C68.3652 59.6743 69.0401 59.8651 69.4957 60.2472C69.9508 60.6287 70.1784 61.2678 70.1784 62.1634C70.1784 62.5065 70.1462 62.7988 70.0814 63.0398C70.0166 63.2809 69.9311 63.4858 69.8233 63.6531C69.716 63.8208 69.5957 63.9552 69.4631 64.0558C69.3293 64.1578 69.194 64.2358 69.0572 64.2898L70.4106 68.1107H68.7861L67.6514 64.6173C67.5483 64.6329 67.4218 64.6423 67.2715 64.646C67.1212 64.6507 66.9729 64.6526 66.8268 64.6526V68.1107ZM66.8268 63.4604H67.3944C67.6089 63.4604 67.7919 63.4412 67.9422 63.4026C68.0926 63.3632 68.2149 63.2936 68.3097 63.1916C68.4046 63.0906 68.4725 62.9567 68.5155 62.7889C68.5585 62.6221 68.5803 62.4134 68.5803 62.1639C68.5803 61.6653 68.4901 61.3251 68.3097 61.1414C68.1288 60.9586 67.8241 60.867 67.3944 60.867H66.8268V63.4604Z" fill="#0088C2"/>
<path id="Vector_19" d="M72.6022 68.1107H71.0554L72.7701 59.6743H74.7548L76.4695 68.1107H74.9233L74.6392 66.2409H72.8862L72.6022 68.1107ZM73.1174 64.9792H74.4065L73.7746 61.3575H73.7487L73.1174 64.9792Z" fill="#0088C2"/>
<path id="Vector_20" d="M80.2575 59.6743H82.6294C83.4624 59.6743 84.0922 59.8806 84.5177 60.2937C84.9433 60.7067 85.1553 61.3491 85.1553 62.2222V65.5638C85.1553 66.4354 84.9428 67.0792 84.5177 67.4913C84.0927 67.9044 83.4629 68.1107 82.6294 68.1107H80.2575V59.6743ZM81.8561 66.9195H82.4097C82.8394 66.9195 83.1379 66.833 83.3059 66.6624C83.4733 66.4909 83.5567 66.1831 83.5567 65.739V62.0469C83.5567 61.6028 83.4733 61.2951 83.3059 61.1235C83.1384 60.952 82.8399 60.8665 82.4097 60.8665H81.8561V66.9195Z" fill="#0088C2"/>
<path id="Vector_21" d="M86.7026 68.1107V59.6743H90.9815V60.9365H88.3001V63.1099H90.3626V64.3721H88.3001V66.849H91.1619V68.1112H86.7026V68.1107Z" fill="#0088C2"/>
<path id="Vector_22" d="M98.1988 61.754C98.1812 61.575 98.1449 61.4256 98.0889 61.3043C98.0329 61.184 97.964 61.0886 97.8831 61.0182C97.8012 60.9486 97.7131 60.8979 97.6188 60.8668C97.5234 60.8358 97.4337 60.8199 97.3482 60.8199C97.0906 60.8199 96.8926 60.8913 96.7552 61.0355C96.6173 61.1807 96.5489 61.3842 96.5489 61.6497C96.5489 61.8913 96.6282 62.1131 96.7874 62.3161C96.9465 62.5181 97.1461 62.7206 97.3866 62.9237C97.6271 63.1257 97.8894 63.3301 98.1729 63.5369C98.4564 63.7436 98.7187 63.9711 98.9597 64.2206C99.1997 64.4692 99.4003 64.7446 99.5589 65.0439C99.7181 65.3442 99.7968 65.6853 99.7968 66.0664C99.7968 66.417 99.7352 66.7271 99.6108 66.9955C99.4858 67.2643 99.3143 67.4903 99.095 67.6735C98.8758 67.8563 98.6093 67.995 98.2957 68.0885C97.9821 68.182 97.6406 68.229 97.271 68.229C96.9014 68.229 96.5702 68.1665 96.2789 68.042C95.9865 67.917 95.7393 67.7483 95.5376 67.5335C95.335 67.3197 95.1784 67.0721 95.067 66.792C94.955 66.511 94.8908 66.2112 94.8737 65.8916L96.3945 65.6933C96.4287 66.1219 96.5323 66.4414 96.7044 66.6515C96.876 66.8615 97.0911 66.9673 97.3487 66.9673C97.6234 66.9673 97.8469 66.901 98.0189 66.768C98.1905 66.636 98.2765 66.4447 98.2765 66.1952C98.2765 65.9151 98.1972 65.6656 98.0381 65.448C97.8785 65.2295 97.6794 65.0195 97.4389 64.8165C97.1984 64.6135 96.9361 64.4119 96.6526 64.2089C96.3691 64.0059 96.1068 63.7841 95.8657 63.5425C95.6252 63.301 95.4252 63.0284 95.2666 62.7249C95.1079 62.4213 95.0286 62.067 95.0286 61.6619C95.0286 60.9838 95.2432 60.4641 95.6724 60.1018C96.1026 59.7395 96.7122 59.5586 97.5027 59.5586C97.8297 59.5586 98.1211 59.6089 98.3792 59.7099C98.6368 59.8119 98.8581 59.9543 99.0427 60.1366C99.2272 60.3203 99.3775 60.536 99.4936 60.7855C99.6102 61.0341 99.6849 61.3067 99.7196 61.6032L98.1988 61.754Z" fill="#0088C2"/>
<path id="Vector_23" d="M101.008 68.1106V59.6742H105.288V60.9364H102.606V63.1098H104.669V64.3719H102.606V66.8489H105.468V68.111H101.008V68.1106ZM103.406 59.2302H102.336L103.354 57.5479H105.094L103.406 59.2302Z" fill="#0088C2"/>
<path id="Vector_24" d="M108.329 68.1107H106.731V59.6743H108.974C109.867 59.6743 110.541 59.8651 110.997 60.2472C111.452 60.6287 111.679 61.2678 111.679 62.1634C111.679 62.5065 111.647 62.7988 111.583 63.0398C111.518 63.2814 111.432 63.4858 111.325 63.6531C111.217 63.8208 111.097 63.9552 110.965 64.0558C110.831 64.1578 110.695 64.2358 110.558 64.2898L111.912 68.1107H110.287L109.153 64.6173C109.05 64.6329 108.923 64.6423 108.772 64.646C108.623 64.6507 108.474 64.6526 108.328 64.6526L108.329 68.1107ZM108.329 63.4604H108.896C109.11 63.4604 109.294 63.4412 109.444 63.4026C109.595 63.3632 109.717 63.2936 109.811 63.1916C109.906 63.0906 109.974 62.9567 110.017 62.7889C110.06 62.6221 110.082 62.4134 110.082 62.1639C110.082 61.6653 109.992 61.3251 109.811 61.1414C109.631 60.9586 109.326 60.867 108.896 60.867H108.329V63.4604Z" fill="#0088C2"/>
<path id="Vector_25" d="M113.394 68.1107V59.6743H114.993V68.1107H113.394Z" fill="#0088C2"/>
<path id="Vector_26" d="M116.759 68.1107V59.6743H121.037V60.9365H118.357V63.1099H120.419V64.3721H118.357V66.849H121.218V68.1112H116.759V68.1107Z" fill="#0088C2"/>
</g>
</g>
</g>
</svg>
