<svg width="528" height="472" viewBox="0 0 528 472" fill="none" xmlns="http://www.w3.org/2000/svg">
<g filter="url(#filter0_d_604_471)">
<path d="M523.462 463.083H511.897L406.848 205.761V177.33L523.462 463.083Z" fill="#1A1A1A"/>
<path d="M462.264 342.132L460.818 338.759L375.045 347.433V351.769L462.264 342.132Z" fill="#1A1A1A"/>
<path d="M364.388 290.5L373.888 289C375.958 356.746 376.83 395.337 378.9 463.083H369.262L364.388 290.5Z" fill="#1A1A1A"/>
<path d="M377.936 426.46V421.16L421.787 463.083H416.486L377.936 426.46Z" fill="#1A1A1A"/>
<path d="M357.697 463.083H365.889L308.064 300.69L299.39 302.136L357.697 463.083Z" fill="#1A1A1A"/>
<path d="M312.883 463.083L366.371 355.143L366.853 376.827L324.448 463.083H312.883Z" fill="#1A1A1A"/>
<path d="M321.556 364.298L320.111 360.443L247.829 361.407V365.262L321.556 364.298Z" fill="#1A1A1A"/>
<path d="M237.71 313.219L247.829 310.81L249.275 463.083H238.674L237.71 313.219Z" fill="#1A1A1A"/>
<path d="M280.597 463.082L248.793 433.206V438.025L274.814 463.082H280.597Z" fill="#1A1A1A"/>
<path d="M166.392 326.23L174.102 324.784L216.025 463.564H208.797L166.392 326.23Z" fill="#1A1A1A"/>
<path d="M183.74 382.127H133.143L134.588 385.982H184.704L183.74 382.127Z" fill="#1A1A1A"/>
<path d="M101.339 337.313L109.049 335.868L176.03 463.565H166.874L101.339 337.313Z" fill="#1A1A1A"/>
<path d="M121.578 333.94L113.868 334.904L109.531 463.083H118.205L121.578 333.94Z" fill="#1A1A1A"/>
<path d="M124.469 382.127H120.614V385.501H125.915L124.469 382.127Z" fill="#1A1A1A"/>
<path d="M120.132 390.319H128.324L129.77 393.211H120.132V390.319Z" fill="#1A1A1A"/>
<path d="M35.3219 350.806L27.6119 352.733L23.275 463.083H31.9488L35.3219 350.806Z" fill="#1A1A1A"/>
<path d="M63.7526 463.083L33.8763 397.548L33.3944 410.559L54.597 463.083H63.7526Z" fill="#1A1A1A"/>
<path d="M402.511 0L410.703 282.379L4 357.07L9.78251 130.588L402.511 0Z" fill="#1A1A1A"/>
<g filter="url(#filter1_d_604_471)">
<path fill-rule="evenodd" clip-rule="evenodd" d="M355.026 236.445C354.855 237.123 354.683 237.802 354.51 238.483C354.758 238.126 355.089 237.872 355.505 237.722C355.63 237.695 355.757 237.665 355.885 237.632C356.191 237.554 356.507 237.458 356.833 237.345C357.531 237.135 358.064 236.959 358.432 236.819C358.848 236.669 359.177 236.173 359.417 235.33C360.949 229.77 362.364 225.512 363.663 222.556C364.565 220.57 365.391 218.873 366.143 217.464C366.513 216.77 366.866 216.145 367.2 215.591C367.454 215.169 367.699 214.775 367.935 214.41C367.939 214.403 367.944 214.396 367.948 214.39C368.681 213.256 369.323 212.4 369.873 211.823C369.986 211.711 370.094 211.606 370.199 211.509C370.82 210.93 371.312 210.602 371.673 210.524C372.19 210.413 372.488 210.714 372.569 211.427C372.596 211.664 372.583 211.971 372.53 212.348C372.523 212.714 372.393 213.259 372.139 213.983C371.235 216.61 370.603 218.662 370.242 220.139C369.881 221.616 369.58 222.988 369.34 224.256C369.206 225.197 369.136 226.064 369.13 226.856C369.117 227.589 369.148 228.282 369.223 228.935C369.479 231.191 370.148 232.629 371.228 233.249C372.356 233.858 373.389 234.062 374.328 233.86C375.689 233.568 376.889 232.702 377.928 231.262C378.96 229.763 379.867 228.017 380.65 226.024C381.427 223.971 382.083 221.914 382.618 219.853C383.2 217.781 383.695 216.002 384.103 214.515C384.203 214.128 384.236 213.787 384.202 213.49C384.148 213.015 383.981 212.808 383.699 212.868C383.511 212.908 383.377 212.998 383.297 213.137C383.209 213.216 383.099 213.514 382.965 214.029C382.738 214.991 382.347 216.413 381.791 218.296C381.276 220.11 380.651 222.009 379.914 223.992C379.225 225.965 378.458 227.681 377.614 229.14C376.763 230.539 375.892 231.335 375 231.526C374.671 231.597 374.349 231.514 374.034 231.277C373.718 231.041 373.507 230.448 373.399 229.498C373.324 228.845 373.314 228.117 373.367 227.315C373.406 225.968 373.623 224.279 374.017 222.248C374.451 220.147 374.949 217.972 375.511 215.722C376.066 213.413 376.614 211.257 377.156 209.255C377.738 207.184 378.223 205.528 378.611 204.289L379.183 202.341L380.223 202.805L380.223 202.807L380.076 203.307L380.075 203.311L380.074 203.315L380.072 203.319L380.071 203.323L380.067 203.338L380.065 203.342L380.064 203.346L380.063 203.35L380.062 203.354L379.964 203.689L379.962 203.694L379.961 203.699L379.959 203.705L379.958 203.71L379.954 203.72L379.953 203.725L379.809 204.217L379.807 204.224L379.647 204.767L379.642 204.782C379.262 205.996 378.783 207.631 378.204 209.691C377.668 211.673 377.124 213.81 376.573 216.103L376.57 216.117C376.014 218.342 375.522 220.491 375.094 222.563C374.711 224.54 374.513 226.121 374.478 227.331L374.477 227.364L374.474 227.397C374.427 228.115 374.439 228.733 374.499 229.261C374.544 229.661 374.604 229.908 374.653 230.046C374.66 230.066 374.667 230.082 374.672 230.094C374.758 230.146 374.807 230.142 374.842 230.134C375.332 230.029 375.971 229.556 376.732 228.309C377.516 226.952 378.24 225.335 378.9 223.447L378.905 223.432L378.911 223.417C379.634 221.469 380.245 219.613 380.747 217.848L380.751 217.831C381.305 215.954 381.685 214.569 381.901 213.655L381.906 213.637L381.91 213.618C381.984 213.336 382.061 213.07 382.145 212.844C382.187 212.732 382.24 212.603 382.306 212.476C382.344 212.404 382.406 212.293 382.497 212.178C382.808 211.73 383.216 211.546 383.541 211.476C383.95 211.388 384.439 211.482 384.821 211.954C385.15 212.36 385.26 212.882 385.303 213.253C385.368 213.827 385.295 214.398 385.158 214.926L385.155 214.938L385.151 214.949C384.743 216.436 384.249 218.214 383.668 220.281C383.118 222.398 382.445 224.508 381.65 226.608L381.646 226.618L381.643 226.628C380.821 228.719 379.86 230.572 378.757 232.176L378.748 232.189L378.739 232.201C377.547 233.854 376.124 234.9 374.486 235.252C373.283 235.511 372.034 235.232 370.771 234.55L370.76 234.544L370.75 234.538C369.187 233.642 368.404 231.644 368.122 229.171C368.039 228.437 368.005 227.669 368.019 226.87C368.026 225.987 368.104 225.042 368.246 224.04L368.251 223.999L368.259 223.959C368.506 222.656 368.814 221.253 369.181 219.752C369.561 218.198 370.213 216.088 371.122 213.446L371.125 213.435C371.24 213.109 371.317 212.85 371.364 212.653C371.388 212.555 371.402 212.48 371.41 212.426C371.418 212.375 371.418 212.352 371.418 212.352L371.42 212.241L371.435 212.142C371.226 212.293 370.937 212.536 370.557 212.914C369.93 213.574 369.105 214.722 368.076 216.431C367.109 218.035 365.96 220.293 364.627 223.228C363.376 226.076 361.988 230.241 360.466 235.766L360.461 235.782C360.176 236.779 359.662 237.828 358.72 238.173C358.323 238.323 357.774 238.504 357.082 238.713C356.619 238.872 356.169 239.001 355.734 239.098C355.526 239.183 355.41 239.294 355.336 239.401L353.453 238.08C354.647 233.392 355.778 228.779 356.845 224.241L356.847 224.233C357.962 219.592 359.125 215.153 360.337 210.915L360.342 210.898C361.042 208.545 361.686 206.755 362.284 205.64L362.286 205.637C363.04 204.237 364.149 203.415 365.493 203.127C365.987 203.02 366.497 203.026 367.015 203.121C367.354 203.139 367.685 203.112 368.009 203.042C368.121 203.018 368.201 202.995 368.255 202.975C368.29 202.963 368.306 202.955 368.307 202.954C368.308 202.954 368.303 202.956 368.292 202.963L369.474 205.3C369.092 205.69 368.476 206.782 367.657 208.91L367.653 208.919L367.65 208.929C367.166 210.14 366.684 211.463 366.204 212.899C366.253 212.827 366.303 212.755 366.352 212.683C367.373 211.141 368.597 209.538 370.021 207.871C371.497 206.121 372.963 204.612 374.419 203.351C375.858 202.104 377.171 201.256 378.31 201.012C378.649 200.939 379.042 200.879 379.381 200.946L380.693 201.205L380.223 202.805L379.183 202.341C379.035 202.312 378.797 202.333 378.469 202.403C378.302 202.439 378.126 202.493 377.941 202.565C377.138 202.876 376.168 203.525 375.029 204.511C373.628 205.724 372.207 207.186 370.766 208.894C370.319 209.418 369.892 209.934 369.487 210.443C369.4 210.552 369.314 210.661 369.229 210.769C369.223 210.777 369.217 210.785 369.21 210.793C368.46 211.752 367.786 212.683 367.188 213.587C366.911 213.989 366.641 214.395 366.378 214.803C366.378 214.804 366.378 214.803 366.378 214.803C365.982 215.419 365.602 216.042 365.24 216.67C365.085 216.937 364.934 217.206 364.785 217.476C364.653 217.717 364.522 217.959 364.395 218.201C363.611 219.769 362.851 221.331 362.114 222.889C362.551 221.205 363.041 219.43 363.584 217.564C363.586 217.554 363.589 217.544 363.592 217.535C363.659 217.305 363.727 217.073 363.795 216.84C363.934 216.369 364.076 215.892 364.221 215.41C365.024 212.744 365.837 210.379 366.661 208.316C367.025 207.369 367.369 206.572 367.691 205.924C367.876 205.551 368.055 205.228 368.226 204.955C368.424 204.64 368.612 204.391 368.791 204.209C368.656 204.298 368.449 204.374 368.167 204.434C367.816 204.509 367.461 204.544 367.101 204.537C367.027 204.536 366.953 204.533 366.879 204.528C366.436 204.441 366.027 204.438 365.651 204.518C364.572 204.75 363.754 205.382 363.198 206.414C362.682 207.376 362.076 209.027 361.381 211.367C360.177 215.579 359.02 219.995 357.91 224.613C356.995 228.503 356.034 232.446 355.026 236.445Z" fill="#C9A421"/>
</g>
<g filter="url(#filter2_d_604_471)">
<path fill-rule="evenodd" clip-rule="evenodd" d="M342.201 202.439C342.738 202.932 343.359 203.103 344.063 202.952C345.002 202.75 345.773 202.128 346.376 201.086C346.978 200.044 347.216 198.959 347.087 197.831C346.993 196.999 346.677 196.337 346.14 195.844C345.603 195.351 344.959 195.186 344.208 195.347C343.363 195.529 342.635 196.111 342.026 197.093C341.416 198.076 341.175 199.131 341.304 200.259C341.405 201.15 341.704 201.877 342.201 202.439ZM338.598 239.255C339.444 240.351 340.735 240.712 342.472 240.339C343.787 240.057 344.94 239.201 345.932 237.771C346.923 236.341 347.787 234.635 348.523 232.652C349.3 230.599 349.936 228.577 350.43 226.585C350.646 225.716 350.846 224.908 351.03 224.162C351.268 223.197 351.479 222.335 351.664 221.575C351.678 221.491 351.691 221.411 351.703 221.335C351.708 221.298 351.713 221.263 351.718 221.228C351.719 221.215 351.721 221.203 351.722 221.191C351.763 220.877 351.773 220.634 351.754 220.461C351.706 220.045 351.565 219.863 351.331 219.913C351.095 219.964 350.916 220.215 350.793 220.667C350.773 220.741 350.755 220.821 350.737 220.906C350.734 220.922 350.731 220.938 350.728 220.955C350.706 221.041 350.683 221.126 350.661 221.212C350.652 221.248 350.642 221.285 350.632 221.321C350.422 222.125 350.203 222.933 349.976 223.746C349.473 225.55 348.931 227.375 348.35 229.222C347.507 231.958 346.586 234.224 345.588 236.02C345.347 236.437 344.941 236.889 344.372 237.376C343.802 237.864 343.282 238.158 342.813 238.259C342.062 238.42 341.491 238.269 341.102 237.805C340.759 237.331 340.544 236.708 340.456 235.936L340.375 235.224C340.369 235.164 340.375 235.011 340.395 234.763C340.415 234.516 340.445 233.931 340.484 233.01C340.504 232.763 340.591 232.257 340.745 231.495L341.036 230.246L344.905 211.622C345.125 210.601 345.215 209.912 345.175 209.556C345.134 209.2 344.936 208.938 344.581 208.771C344.265 208.535 343.759 208.522 343.061 208.733L339.208 209.743C339.323 209.901 339.524 210.192 339.813 210.617C339.894 210.722 339.967 210.837 340.03 210.962C340.187 211.268 340.289 211.633 340.337 212.055C340.378 212.412 340.354 212.842 340.268 213.348L337.282 229.592C337.135 230.415 337.022 231.321 336.942 232.311C336.903 233.232 336.933 234.138 337.035 235.029C337.224 236.692 337.745 238.1 338.598 239.255ZM339.182 213.08L336.2 229.305L336.198 229.313C336.04 230.201 335.92 231.166 335.836 232.203L335.834 232.237L335.832 232.27C335.789 233.282 335.823 234.281 335.934 235.265C336.154 237.192 336.766 238.865 337.778 240.235L337.786 240.246L337.794 240.257C338.984 241.798 340.702 242.145 342.631 241.731C344.233 241.387 345.613 240.339 346.758 238.689C347.83 237.143 348.75 235.318 349.525 233.232C350.322 231.124 350.978 229.04 351.49 226.978C351.985 224.985 352.397 223.312 352.726 221.96L352.74 221.902L352.75 221.843C352.84 221.316 352.912 220.73 352.854 220.225C352.816 219.893 352.719 219.403 352.416 219.011C352.054 218.543 351.579 218.434 351.172 218.521C350.182 218.734 349.805 219.871 349.66 220.595C348.969 223.254 348.188 225.965 347.319 228.727L347.316 228.737C346.498 231.391 345.62 233.541 344.692 235.213C344.563 235.432 344.284 235.769 343.767 236.212C343.278 236.63 342.911 236.812 342.654 236.867C342.163 236.972 341.972 236.861 341.897 236.79C341.743 236.557 341.616 236.218 341.557 235.7L341.487 235.083C341.489 235.036 341.493 234.967 341.501 234.871C341.524 234.588 341.554 233.981 341.593 233.094C341.608 232.949 341.671 232.559 341.816 231.837L341.879 231.566L341.88 231.562L341.883 231.549L341.885 231.541L341.886 231.537L341.888 231.528L341.89 231.52L341.891 231.516L341.892 231.512L341.894 231.503L341.909 231.439L341.91 231.435L341.911 231.431L341.912 231.424C341.907 231.446 341.911 231.432 341.912 231.424L341.92 231.392L341.921 231.388L341.922 231.384L341.923 231.38L341.951 231.259L341.952 231.256L341.952 231.252L341.964 231.205L341.967 231.191L341.987 231.102L341.989 231.096L341.99 231.09L341.998 231.055L342 231.049L342 231.046L342.001 231.043L342.005 231.026L342.009 231.009L342.012 230.999L342.012 230.996L342.013 230.991L342.014 230.988L342.016 230.977L342.019 230.967L342.024 230.946L342.073 230.736L342.073 230.735L342.073 230.733L342.074 230.73L342.075 230.727L342.075 230.726L342.075 230.724L342.078 230.713L342.083 230.692L342.085 230.683L342.087 230.674L342.094 230.645L342.094 230.643L342.095 230.642L342.095 230.639L342.098 230.629L342.1 230.617L342.101 230.616M339.183 213.071C339.251 212.673 339.252 212.426 339.237 212.292C339.197 211.939 339.106 211.744 339.009 211.618L338.986 211.587L338.964 211.555C338.674 211.129 338.482 210.853 338.381 210.712L337.053 208.874L342.847 207.355C343.561 207.141 344.392 207.038 345.073 207.487C345.626 207.775 346.164 208.345 346.275 209.32C346.321 209.719 346.284 210.155 346.234 210.536C346.181 210.946 346.093 211.423 345.978 211.957C345.977 211.959 345.977 211.961 345.976 211.963M339.183 213.071C339.183 213.074 339.182 213.077 339.182 213.08ZM350.652 220.684C350.651 220.68 350.651 220.677 350.65 220.677C350.65 220.677 350.651 220.68 350.652 220.686C350.652 220.685 350.652 220.685 350.652 220.684ZM341.491 203.55L341.45 203.503C340.753 202.714 340.339 201.689 340.203 200.496C340.027 198.949 340.374 197.503 341.159 196.237C341.919 195.013 342.886 194.205 344.049 193.955C345.051 193.74 346.001 193.954 346.806 194.693C347.576 195.4 348.051 196.39 348.188 197.594C348.363 199.136 348.023 200.595 347.266 201.903C346.498 203.23 345.471 204.075 344.221 204.343C343.245 204.553 342.323 204.314 341.535 203.59L341.491 203.55Z" fill="#C9A421"/>
</g>
<g filter="url(#filter3_d_604_471)">
<path fill-rule="evenodd" clip-rule="evenodd" d="M307.798 229.266C308.148 229.799 308.46 230.005 308.735 229.886C310.813 229.135 313.124 228.304 315.665 227.393C318.2 226.423 321.111 225.584 324.397 224.878C325.195 224.707 325.56 224.324 325.493 223.73C325.459 223.434 325.281 223.137 324.959 222.841C324.683 222.536 324.311 222.433 323.842 222.534C320.307 223.172 317.128 223.763 314.304 224.309C311.481 224.855 309.459 225.259 308.238 225.521C307.816 225.612 307.531 225.856 307.383 226.252C307.229 226.59 307.179 226.996 307.233 227.471C307.301 228.064 307.489 228.663 307.798 229.266ZM306.402 225.62C306.755 224.722 307.407 224.274 308.08 224.129C309.31 223.865 311.341 223.46 314.164 222.914C316.989 222.368 320.167 221.776 323.699 221.139C324.376 220.998 325.087 221.117 325.662 221.724C326.057 222.096 326.499 222.668 326.593 223.494C326.682 224.276 326.459 225.023 325.964 225.542C325.551 225.975 325.026 226.169 324.555 226.27C321.304 226.969 318.441 227.794 315.961 228.744L315.952 228.747L315.942 228.751C313.409 229.659 311.107 230.487 309.035 231.235C308.557 231.428 308.108 231.306 307.761 231.076C307.428 230.856 307.157 230.521 306.936 230.184L306.896 230.123L306.862 230.057C306.485 229.321 306.228 228.537 306.133 227.707C306.054 227.015 306.111 226.288 306.402 225.62Z" fill="#C9A421"/>
</g>
<g filter="url(#filter4_d_604_471)">
<path fill-rule="evenodd" clip-rule="evenodd" d="M277.185 252.54C278.756 253.663 280.41 254.038 282.147 253.664C284.118 253.241 285.748 252.343 287.035 250.972C288.368 249.59 289.454 247.928 290.291 245.984C291.121 243.98 291.8 241.918 292.328 239.797C292.85 237.617 293.338 235.566 293.793 233.643C293.893 233.257 293.93 232.945 293.902 232.707C293.869 232.41 293.734 232.287 293.5 232.337C293.219 232.398 292.989 232.599 292.809 232.942C292.807 232.946 292.805 232.949 292.803 232.953C292.8 232.961 292.796 232.968 292.792 232.976C292.679 233.201 292.586 233.485 292.515 233.826C292.227 235.105 291.83 236.681 291.321 238.554C290.86 240.417 290.234 242.316 289.444 244.249C288.647 246.124 287.679 247.761 286.54 249.162C285.401 250.562 284.057 251.429 282.507 251.762C281.24 252.034 280.304 251.627 279.699 250.54C279.095 249.454 278.708 248.168 278.539 246.683C278.397 245.437 278.353 244.199 278.405 242.971C278.505 241.733 278.632 240.733 278.785 239.97C279.49 239.818 280.361 239.449 281.401 238.86C282.433 238.213 283.455 237.476 284.468 236.65C285.48 235.824 286.301 235.009 286.931 234.205C288.398 232.308 289.477 230.373 290.166 228.4C290.856 226.427 291.116 224.698 290.947 223.214C290.785 221.789 290.261 220.776 289.375 220.175C288.543 219.624 287.61 219.46 286.577 219.681C285.075 220.004 283.553 221 282.012 222.67C280.47 224.339 279.133 226.33 278.002 228.641C276.669 231.3 275.662 234.284 274.98 237.593C274.292 240.844 274.1 243.805 274.404 246.477C274.735 249.387 275.662 251.408 277.185 252.54ZM280.434 237.733C280.96 237.468 281.583 237.11 282.304 236.659C283.779 235.673 285.073 234.361 286.185 232.723C287.25 231.095 288.02 229.408 288.495 227.664C288.963 225.86 289.133 224.394 289.005 223.266C288.856 221.96 288.407 221.387 287.655 221.548C287.092 221.669 286.371 222.311 285.494 223.473C284.616 224.635 283.578 226.5 282.379 229.069C281.649 230.686 280.98 232.411 280.371 234.246C280.064 235.169 279.804 235.967 279.591 236.639C279.38 237.301 279.216 237.842 279.096 238.26C279.433 238.188 279.879 238.012 280.434 237.733ZM281.024 235.886C281.269 235.743 281.534 235.582 281.82 235.404C283.156 234.508 284.329 233.319 285.344 231.827C286.328 230.322 287.02 228.793 287.443 227.243C287.886 225.534 287.997 224.316 287.905 223.502C287.877 223.256 287.839 223.088 287.805 222.981C287.801 222.968 287.797 222.956 287.793 222.946C287.726 222.967 287.571 223.041 287.315 223.269C287.036 223.518 286.694 223.897 286.286 224.437C285.502 225.474 284.519 227.222 283.336 229.757C282.632 231.316 281.984 232.985 281.393 234.766C281.261 235.164 281.138 235.537 281.024 235.886ZM277.065 227.911C275.665 230.705 274.615 233.826 273.906 237.262C273.188 240.656 272.973 243.814 273.303 246.713C273.666 249.903 274.719 252.361 276.606 253.763L276.614 253.769L276.622 253.775C278.401 255.046 280.308 255.485 282.305 255.056C284.433 254.599 286.26 253.615 287.73 252.05C289.178 250.549 290.357 248.74 291.263 246.637L291.267 246.626L291.272 246.616C292.133 244.538 292.839 242.396 293.388 240.192L293.391 240.176C293.912 238.001 294.399 235.954 294.852 234.035C294.973 233.567 295.065 233.016 295.003 232.471C294.962 232.108 294.829 231.595 294.443 231.241C294.056 230.886 293.628 230.884 293.341 230.946C292.223 231.186 291.679 232.372 291.444 233.482C291.164 234.725 290.774 236.27 290.271 238.124L290.266 238.143L290.261 238.162C289.823 239.933 289.225 241.75 288.465 243.614C287.721 245.36 286.825 246.872 285.777 248.16C284.805 249.356 283.672 250.086 282.349 250.37C281.848 250.478 281.491 250.434 281.239 250.324C280.999 250.22 280.793 250.031 280.613 249.706C280.118 248.817 279.787 247.741 279.639 246.447C279.509 245.3 279.468 244.167 279.514 243.045C279.574 242.305 279.643 241.672 279.718 241.14C280.362 240.916 281.069 240.579 281.831 240.147L281.852 240.136L281.872 240.123C282.945 239.45 284.005 238.686 285.052 237.832C286.111 236.968 287.004 236.088 287.709 235.187L287.714 235.181C289.257 233.187 290.424 231.11 291.18 228.945C291.921 226.824 292.256 224.814 292.047 222.977C291.843 221.179 291.145 219.758 289.918 218.926L289.908 218.92C288.844 218.215 287.665 218.022 286.419 218.29C284.659 218.668 282.953 219.818 281.303 221.605C279.667 223.377 278.255 225.482 277.065 227.911Z" fill="#C9A421"/>
</g>
<g filter="url(#filter5_d_604_471)">
<path fill-rule="evenodd" clip-rule="evenodd" d="M249.504 259.491C250.175 260.32 251.239 260.578 252.694 260.266C254.478 259.882 256.026 258.698 257.34 256.713C258.653 254.727 259.775 252.327 260.705 249.511C261.675 246.626 262.447 243.692 263.022 240.71C263.637 237.658 264.114 234.879 264.454 232.373C264.841 229.856 265.128 227.939 265.315 226.622C265.288 226.384 265.315 226.196 265.395 226.057C265.482 225.552 265.512 225.18 265.485 224.943C265.37 223.933 264.867 223.524 263.975 223.716C263.27 223.867 262.463 224.588 261.551 225.879C260.68 227.1 260.098 228.959 259.805 231.455C259.685 232.515 259.689 233.609 259.818 234.737C259.926 235.687 260.108 236.652 260.363 237.631C260.619 238.611 260.958 239.48 261.382 240.241C260.834 243.035 260.199 245.696 259.476 248.224C258.747 250.692 257.92 252.725 256.996 254.323C256.118 255.91 255.14 256.82 254.06 257.052C253.778 257.113 253.439 257.094 253.044 256.997C252.487 256.752 252.141 256.035 252.005 254.847C251.85 253.482 251.912 251.704 252.192 249.515C252.472 247.326 252.803 245.156 253.183 243.006C253.477 241.361 253.717 239.455 253.903 237.285C254.083 235.057 254.111 233.196 253.99 231.701C253.854 230.088 253.665 229.064 253.424 228.629C253.229 228.184 252.897 228.012 252.427 228.113C252.239 228.153 252.031 228.228 251.803 228.338C251.569 228.389 251.314 228.474 251.039 228.594C250.851 228.634 250.482 228.774 249.933 229.014C249.641 229.141 249.355 229.267 249.077 229.392C248.83 229.502 248.589 229.61 248.353 229.718L247.669 230.048L247.298 228.729L247.324 228.717L247.326 228.716L247.327 228.716L247.432 228.665L247.433 228.665L247.435 228.663L247.436 228.663L247.512 228.626L247.513 228.626L247.714 228.529L247.992 228.395L248.001 228.391C248.509 228.159 249.041 227.922 249.595 227.68C250.072 227.472 250.486 227.305 250.779 227.227C251.036 227.119 251.288 227.032 251.535 226.972C251.78 226.86 252.026 226.773 252.269 226.721C252.645 226.64 253.065 226.648 253.47 226.857C253.871 227.065 254.169 227.425 254.37 227.857C254.596 228.29 254.732 228.843 254.829 229.369C254.938 229.958 255.025 230.679 255.095 231.516L255.095 231.52C255.228 233.145 255.193 235.11 255.009 237.394L255.008 237.403C254.819 239.61 254.573 241.572 254.268 243.282C253.892 245.404 253.566 247.546 253.29 249.707C253.018 251.828 252.973 253.445 253.106 254.611C253.16 255.091 253.247 255.368 253.318 255.516C253.35 255.581 253.376 255.617 253.395 255.636C253.646 255.687 253.808 255.681 253.901 255.661C254.58 255.515 255.321 254.926 256.091 253.532L256.098 253.519L256.106 253.506C256.95 252.047 257.731 250.144 258.434 247.765C259.09 245.47 259.674 243.058 260.185 240.529C259.827 239.789 259.535 238.98 259.307 238.106C259.033 237.055 258.835 236.011 258.717 234.974C258.575 233.722 258.569 232.492 258.705 231.289L258.706 231.282C259.015 228.649 259.65 226.471 260.734 224.949C261.683 223.605 262.714 222.561 263.816 222.324C264.404 222.198 265.068 222.222 265.637 222.684C266.232 223.168 266.498 223.945 266.585 224.706C266.643 225.212 266.571 225.798 266.481 226.324L266.437 226.578L266.441 226.611L266.409 226.837C266.221 228.163 265.934 230.083 265.547 232.594C265.202 235.139 264.719 237.949 264.1 241.02C263.511 244.077 262.719 247.082 261.726 250.035C260.76 252.959 259.582 255.489 258.183 257.604C256.717 259.821 254.935 261.21 252.852 261.657C251.245 262.003 249.75 261.789 248.718 260.515C247.838 259.428 247.337 257.966 247.143 256.257C246.95 254.558 246.968 252.63 247.176 250.491L247.178 250.472L247.18 250.452C247.321 249.277 247.47 248.11 247.628 246.951C247.578 246.93 247.529 246.906 247.48 246.878C247.191 246.712 246.983 246.453 246.839 246.193C246.441 245.478 246.501 244.672 246.699 244.052C246.873 243.467 247.052 242.907 247.234 242.374C247.393 241.839 247.529 241.31 247.645 240.788L247.648 240.774L247.652 240.759C247.883 239.793 248.041 238.649 248.116 237.313L248.117 237.292L248.119 237.27C248.231 235.873 248.221 234.655 248.101 233.605C248.005 232.761 247.849 232.15 247.666 231.722C247.583 231.528 247.522 231.456 247.504 231.438C247.501 231.434 247.5 231.434 247.501 231.435C247.503 231.436 247.507 231.439 247.514 231.442C247.528 231.449 247.543 231.454 247.556 231.455L247.298 228.729L247.669 230.048C248.059 230.086 248.384 230.411 248.646 231.024C248.652 231.038 248.658 231.052 248.664 231.066C248.917 231.672 249.096 232.44 249.201 233.368C249.337 234.556 249.344 235.893 249.225 237.378C249.145 238.794 248.975 240.047 248.715 241.138C248.588 241.712 248.437 242.292 248.263 242.877C248.082 243.402 247.905 243.958 247.731 244.542C247.624 244.87 247.631 245.142 247.752 245.359C247.778 245.406 247.805 245.446 247.834 245.481C247.94 245.608 248.067 245.656 248.215 245.625C248.544 245.554 248.838 245.187 249.1 244.522C248.983 245.304 248.87 246.089 248.762 246.878C248.591 248.119 248.43 249.37 248.279 250.629C248.08 252.68 248.068 254.477 248.243 256.021C248.412 257.505 248.832 258.662 249.504 259.491Z" fill="#C9A421"/>
</g>
<g filter="url(#filter6_d_604_471)">
<path fill-rule="evenodd" clip-rule="evenodd" d="M231.171 226.292C231.708 226.785 232.328 226.956 233.032 226.805C233.971 226.603 234.742 225.981 235.345 224.939C235.948 223.897 236.185 222.812 236.057 221.684C235.962 220.852 235.647 220.19 235.11 219.697C234.573 219.204 233.929 219.039 233.177 219.2C232.332 219.382 231.605 219.964 230.995 220.946C230.386 221.929 230.145 222.984 230.273 224.113C230.375 225.003 230.674 225.73 231.171 226.292ZM227.567 263.109C228.413 264.204 229.705 264.565 231.442 264.192C232.756 263.91 233.91 263.054 234.901 261.624C235.893 260.195 236.757 258.488 237.493 256.505C238.27 254.452 238.905 252.43 239.4 250.438C239.616 249.569 239.816 248.761 240 248.015C240.238 247.05 240.449 246.188 240.634 245.428C240.648 245.344 240.661 245.264 240.672 245.188C240.678 245.151 240.683 245.116 240.687 245.081C240.689 245.068 240.691 245.056 240.692 245.044C240.733 244.73 240.743 244.487 240.723 244.314C240.676 243.898 240.535 243.716 240.3 243.766C240.065 243.817 239.885 244.068 239.763 244.52C239.743 244.594 239.724 244.674 239.707 244.759C239.704 244.775 239.701 244.792 239.697 244.808C239.675 244.894 239.653 244.979 239.631 245.065C239.621 245.101 239.612 245.138 239.602 245.174C239.391 245.978 239.173 246.786 238.946 247.599C238.443 249.403 237.901 251.228 237.319 253.075C236.476 255.811 235.556 258.077 234.558 259.873C234.317 260.29 233.911 260.742 233.341 261.229C232.771 261.717 232.252 262.011 231.782 262.112C231.031 262.273 230.461 262.122 230.072 261.658C229.729 261.184 229.514 260.561 229.426 259.789L229.345 259.077C229.338 259.017 229.345 258.864 229.365 258.616C229.385 258.369 229.414 257.784 229.454 256.863C229.474 256.616 229.561 256.111 229.714 255.348L230.005 254.099L233.874 235.475C234.095 234.454 234.185 233.765 234.144 233.409C234.104 233.053 233.906 232.791 233.55 232.624C233.235 232.388 232.728 232.375 232.031 232.586L228.178 233.596C228.292 233.754 228.494 234.045 228.782 234.47C228.864 234.575 228.936 234.69 229 234.815C229.156 235.121 229.259 235.486 229.307 235.908C229.347 236.265 229.324 236.696 229.237 237.201L226.252 253.445C226.105 254.268 225.991 255.174 225.912 256.164C225.872 257.085 225.903 257.991 226.004 258.882C226.194 260.545 226.714 261.953 227.567 263.109ZM234.043 231.34C234.596 231.628 235.134 232.198 235.245 233.173C235.29 233.572 235.254 234.008 235.204 234.389C235.15 234.798 235.063 235.275 234.947 235.809C234.947 235.811 234.946 235.814 234.946 235.816L231.075 254.447L231.071 254.467L231.07 254.47L231.067 254.482L231.066 254.487L231.065 254.492L231.064 254.495L231.064 254.496C231.063 254.502 231.065 254.492 231.063 254.498L231.057 254.527C231.047 254.568 231.064 254.495 231.055 254.536L231.048 254.565L231.048 254.566L231.045 254.577L231.045 254.579L231.044 254.58L231.044 254.583L231.043 254.586L231.043 254.588L231.042 254.589L230.984 254.841L230.983 254.844L230.982 254.846L230.982 254.849L230.981 254.852L230.979 254.863L230.975 254.879L230.973 254.885L230.971 254.896L230.97 254.899L230.969 254.902L230.96 254.943L230.922 255.106L230.921 255.109L230.892 255.233L230.891 255.237L230.89 255.241L230.88 255.284L230.88 255.288L230.861 255.369L230.858 255.381L230.856 255.39L230.855 255.394L230.854 255.398L230.853 255.402L230.852 255.406L230.85 255.415L230.849 255.419L230.786 255.69C230.641 256.412 230.577 256.802 230.562 256.947C230.524 257.834 230.493 258.441 230.471 258.724C230.463 258.82 230.458 258.888 230.456 258.934L230.526 259.553C230.585 260.071 230.713 260.41 230.867 260.643C230.942 260.714 231.133 260.826 231.624 260.72C231.881 260.665 232.248 260.483 232.736 260.065C233.254 259.622 233.533 259.285 233.662 259.066C234.59 257.394 235.468 255.244 236.285 252.59L236.288 252.58C237.158 249.818 237.938 247.108 238.629 244.448C238.775 243.724 239.152 242.587 240.142 242.374C240.549 242.287 241.024 242.396 241.385 242.864C241.688 243.256 241.786 243.746 241.824 244.078C241.881 244.583 241.81 245.169 241.72 245.696L241.709 245.755L241.695 245.813C241.367 247.165 240.955 248.838 240.459 250.831C239.947 252.893 239.292 254.977 238.495 257.085C237.72 259.171 236.8 260.996 235.727 262.542C234.583 264.192 233.202 265.24 231.6 265.584C229.672 265.998 227.954 265.651 226.764 264.11L226.756 264.099L226.747 264.088C225.736 262.718 225.123 261.045 224.904 259.118C224.792 258.134 224.758 257.135 224.802 256.123L224.803 256.09L224.806 256.056C224.889 255.019 225.009 254.054 225.168 253.166L225.169 253.158L228.151 236.933C228.152 236.93 228.153 236.927 228.153 236.924C228.221 236.526 228.222 236.279 228.206 236.145C228.166 235.792 228.076 235.597 227.979 235.471L227.955 235.441L227.933 235.408C227.644 234.982 227.452 234.706 227.35 234.565L226.022 232.727L231.817 231.208C232.531 230.994 233.362 230.891 234.043 231.34ZM239.621 244.539C239.619 244.525 239.62 244.527 239.623 244.55C239.623 244.548 239.623 244.547 239.622 244.545M239.621 244.539C239.621 244.535 239.621 244.534 239.621 244.534C239.621 244.534 239.622 244.537 239.622 244.545M230.46 227.403L230.419 227.356C229.722 226.567 229.309 225.542 229.173 224.349C228.997 222.802 229.343 221.356 230.129 220.09C230.888 218.866 231.856 218.058 233.019 217.808C234.02 217.593 234.971 217.807 235.776 218.546C236.546 219.253 237.02 220.243 237.157 221.447C237.333 222.989 236.992 224.448 236.235 225.756C235.468 227.083 234.441 227.928 233.191 228.196C232.214 228.406 231.293 228.167 230.505 227.443L230.46 227.403Z" fill="#C9A421"/>
</g>
<g filter="url(#filter7_d_604_471)">
<path fill-rule="evenodd" clip-rule="evenodd" d="M206.154 263.695C206.391 265.773 207.009 267.192 208.009 267.95C209.002 268.649 209.945 268.903 210.837 268.711C211.213 268.63 211.467 268.545 211.601 268.456C212.589 267.926 213.469 267.095 214.242 265.965C214.356 265.798 214.468 265.624 214.577 265.444C214.758 265.146 214.934 264.84 215.105 264.527C215.11 264.517 215.115 264.508 215.121 264.498C215.786 263.275 216.379 261.933 216.898 260.474C216.956 260.321 217.014 260.167 217.071 260.013C217.7 258.311 218.248 256.601 218.714 254.883C218.867 254.322 219.012 253.779 219.151 253.254C219.477 252.024 219.766 250.893 220.019 249.858C220.033 249.774 220.046 249.694 220.057 249.618C220.062 249.581 220.067 249.545 220.072 249.51C220.073 249.507 220.073 249.503 220.074 249.499C220.117 249.173 220.128 248.921 220.108 248.744C220.061 248.328 219.943 248.14 219.756 248.181C219.481 248.24 219.279 248.496 219.15 248.95C219.13 249.018 219.112 249.091 219.096 249.168C219.091 249.191 219.087 249.214 219.082 249.238C219.061 249.32 219.039 249.405 219.016 249.492C219.006 249.529 218.996 249.566 218.986 249.604C218.763 250.452 218.468 251.524 218.102 252.821C218.04 253.043 217.975 253.27 217.908 253.505C217.434 255.249 216.872 257.073 216.222 258.977C216.169 259.139 216.115 259.299 216.06 259.457C216.009 259.604 215.958 259.75 215.907 259.894C215.903 259.904 215.899 259.915 215.896 259.926C215.379 261.369 214.829 262.654 214.244 263.782C214.072 264.096 213.901 264.377 213.73 264.624C213.729 264.624 213.729 264.625 213.729 264.625C213.632 264.765 213.535 264.894 213.439 265.013C212.994 265.559 212.552 265.879 212.113 265.973C211.174 266.175 210.616 265.504 210.441 263.96C210.306 262.773 210.355 261.302 210.588 259.549C210.862 257.726 211.229 255.883 211.691 254.02C212.145 252.097 212.577 250.392 212.985 248.906C213.386 247.359 213.65 246.299 213.777 245.724C214.045 244.693 214.275 243.549 214.469 242.291C214.652 241.323 214.74 240.5 214.732 239.821C214.732 239.76 214.73 239.701 214.728 239.642C214.723 239.498 214.712 239.361 214.698 239.23C214.677 239.052 214.6 238.795 214.466 238.459C212.347 239.279 210.184 239.926 207.977 240.4L206.287 240.764C205.764 240.815 205.264 240.862 204.788 240.903C205.09 240.509 205.44 240.006 205.839 239.394C206.104 238.987 206.39 238.532 206.698 238.029C207.508 236.699 207.936 235.391 207.982 234.103C207.996 233.796 207.985 233.494 207.951 233.198C207.965 232.891 207.958 232.618 207.931 232.381C207.775 231.015 207.399 230.031 206.801 229.43C206.197 228.769 205.59 228.504 204.98 228.635C204.557 228.726 204.185 229.049 203.864 229.605C203.535 230.101 203.355 230.839 203.322 231.82C203.24 234.898 202.958 238.266 202.476 241.921C202.449 242.121 202.422 242.322 202.395 242.524C202.365 242.739 202.335 242.954 202.305 243.17C201.764 247.301 200.983 251.423 199.96 255.536C198.981 259.388 197.8 262.981 196.415 266.316C196.342 266.491 196.269 266.665 196.196 266.838C196.166 266.899 196.138 266.959 196.114 267.016C196.065 267.134 196.029 267.245 196.004 267.349C196.002 267.358 196 267.366 195.998 267.375C195.948 267.607 195.96 267.804 196.035 267.967C196.116 268.254 196.25 268.377 196.438 268.337C196.579 268.307 196.69 268.222 196.77 268.083C196.874 267.911 196.977 267.734 197.078 267.553C197.082 267.545 197.086 267.538 197.09 267.531C197.104 267.506 197.117 267.482 197.131 267.458C197.211 267.313 197.29 267.165 197.368 267.015C198.144 265.526 198.855 263.74 199.502 261.657C200.358 259.039 201.087 256.358 201.689 253.613C202.337 250.858 202.812 248.475 203.112 246.464L203.623 243.343C205.32 243.04 206.712 243.014 207.798 243.268C208.932 243.511 209.56 244.167 209.681 245.235C209.722 245.592 209.699 246.022 209.612 246.528C209.325 247.806 208.796 249.501 208.026 251.613C207.304 253.715 206.775 255.836 206.442 257.976C206.068 260.185 205.972 262.092 206.154 263.695ZM205.353 257.725C204.963 260.036 204.847 262.116 205.054 263.931C205.317 266.245 206.043 268.121 207.421 269.167L207.436 269.178L207.451 269.189C208.601 269.998 209.795 270.361 210.995 270.103C211.342 270.028 211.738 269.924 212.046 269.736C213.369 269.016 214.503 267.848 215.451 266.289L215.452 266.287C216.399 264.725 217.215 262.975 217.903 261.044C218.622 259.146 219.243 257.236 219.765 255.312C220.276 253.429 220.714 251.739 221.08 250.245L221.094 250.186L221.104 250.125C221.195 249.599 221.266 249.013 221.209 248.507C221.175 248.213 221.097 247.772 220.861 247.396C220.56 246.914 220.09 246.683 219.597 246.789C218.618 246.999 218.185 248.038 218.014 248.877C217.752 249.885 217.369 251.276 216.864 253.056L216.859 253.074C216.394 254.78 215.843 256.57 215.204 258.444L215.2 258.457C214.615 260.219 213.989 261.734 213.328 263.011C212.669 264.211 212.195 264.53 211.954 264.582C211.837 264.607 211.784 264.594 211.772 264.59C211.77 264.589 211.77 264.59 211.769 264.589C211.769 264.589 211.769 264.589 211.766 264.585C211.739 264.553 211.613 264.356 211.541 263.724C211.429 262.734 211.462 261.427 211.682 259.764C211.947 258.003 212.303 256.219 212.75 254.412L212.755 254.394C213.206 252.486 213.632 250.802 214.033 249.34L214.037 249.328L214.04 249.316C214.433 247.799 214.703 246.721 214.84 246.105C215.119 245.024 215.357 243.841 215.555 242.558C215.805 241.226 215.914 240.014 215.798 238.994C215.75 238.577 215.602 238.15 215.459 237.795L215.049 236.768L214.166 237.11C212.094 237.912 209.978 238.545 207.819 239.009L207.439 239.09C207.482 239.02 207.525 238.949 207.569 238.877L207.57 238.875C208.482 237.379 209.032 235.793 209.093 234.137C209.107 233.789 209.099 233.443 209.066 233.101C209.075 232.773 209.066 232.452 209.031 232.144C208.854 230.584 208.399 229.227 207.523 228.333C206.759 227.504 205.842 227.024 204.821 227.243C204.049 227.409 203.443 227.991 202.995 228.751C202.457 229.588 202.249 230.675 202.211 231.796L202.211 231.808C202.122 235.153 201.79 238.867 201.211 242.954L201.208 242.974C200.677 247.035 199.908 251.089 198.902 255.138C197.895 259.098 196.673 262.77 195.236 266.156C194.961 266.729 194.657 267.665 195.022 268.586C195.111 268.859 195.264 269.181 195.531 269.426C195.866 269.734 196.253 269.803 196.597 269.729C197.005 269.641 197.383 269.37 197.651 268.915C198.741 267.106 199.696 264.842 200.531 262.158C201.402 259.494 202.144 256.765 202.756 253.973C203.409 251.199 203.893 248.774 204.202 246.705L204.544 244.617C205.8 244.452 206.802 244.477 207.571 244.656L207.586 244.66C208.038 244.756 208.279 244.914 208.4 245.041C208.499 245.144 208.557 245.263 208.581 245.472C208.596 245.602 208.596 245.839 208.533 246.218C208.267 247.386 207.77 248.988 207.02 251.047L207.014 251.062L207.009 251.076C206.256 253.265 205.703 255.482 205.353 257.725ZM219.001 248.935C219.001 248.935 219.002 248.94 219.004 248.951C219.002 248.941 219.001 248.935 219.001 248.935Z" fill="#C9A421"/>
</g>
<g filter="url(#filter8_d_604_471)">
<path fill-rule="evenodd" clip-rule="evenodd" d="M127.515 291.22L127.513 291.22C124.38 291.387 121.796 290.746 119.92 289.086L119.904 289.072L119.889 289.058C118.152 287.404 117.059 285.354 116.78 282.895C116.478 280.242 117.133 277.706 118.586 275.354L118.592 275.345L118.597 275.336C120.173 272.862 122.547 271.38 125.541 270.736C127.559 270.303 129.774 270.348 132.173 270.839C133.239 271.01 134.518 271.41 135.995 272.013C137.505 272.544 138.995 273.111 140.465 273.712C141.513 274.14 142.4 274.514 143.124 274.831C144.646 272.142 146.008 269.166 147.208 265.9L147.21 265.895C148.592 262.173 149.859 258.263 151.011 254.163C152.168 249.959 153.346 245.721 154.543 241.448C155.748 237.149 157.038 232.953 158.412 228.86L158.414 228.855C159.654 225.209 161.067 221.777 162.654 218.559C160.45 217.574 158.098 216.927 155.596 216.623L155.585 216.621L155.575 216.62C152.649 216.192 149.689 216.299 146.692 216.942C145.563 217.185 144.418 217.519 143.258 217.944C142.136 218.363 140.995 218.845 139.837 219.39C135.717 221.462 132.385 224.061 129.808 227.162L129.799 227.173C127.172 230.269 125.322 233.421 124.201 236.621C123.103 239.8 122.743 242.566 123.016 244.966C123.216 246.724 123.75 248.146 124.605 249.288C125.418 250.373 126.583 251.086 128.201 251.336C129.455 251.529 130.472 251.519 131.271 251.347C132.672 251.046 133.781 250.452 134.642 249.614C135.623 248.628 136.399 247.533 136.984 246.334C137.602 245.067 138.003 243.917 138.215 242.881L138.221 242.851L138.228 242.821C138.501 241.693 138.589 240.925 138.572 240.449C138.529 239.936 138.618 239.331 138.985 238.836C139.325 238.378 139.762 238.209 140.085 238.139C140.63 238.022 141.316 238.104 141.811 238.808C142.238 239.415 142.315 240.213 142.302 240.851C142.337 243.524 141.815 246.011 140.734 248.277L140.729 248.287L140.724 248.297C139.663 250.439 138.303 252.249 136.651 253.721L136.64 253.731L136.629 253.74C134.966 255.152 133.179 256.07 131.278 256.479C130.028 256.747 128.715 256.759 127.345 256.53L127.325 256.527L127.306 256.523C124.83 255.992 122.628 254.635 120.717 252.478L120.706 252.465L120.695 252.451C118.78 250.162 117.629 247.238 117.232 243.745C116.837 240.275 117.358 236.67 118.717 232.968L118.719 232.962C120.145 229.123 122.635 225.5 126.098 222.069C129.612 218.587 134.331 215.681 140.203 213.309C142.186 212.509 144.212 211.886 146.282 211.442C149.704 210.707 153.115 210.505 156.513 210.837C159.65 211.13 162.675 211.839 165.586 212.963L166.622 210.871L166.67 210.798C167.067 210.188 167.61 209.436 168.29 208.55L168.301 208.535L168.313 208.521C169.041 207.624 169.772 206.756 170.508 205.918C171.23 205.095 171.847 204.46 172.318 204.116C172.937 203.657 173.553 203.302 174.127 203.178C174.324 203.136 174.638 203.093 174.96 203.218C175.138 203.288 175.348 203.42 175.526 203.667C175.71 203.921 175.806 204.222 175.838 204.51C175.922 205.245 175.665 205.874 175.445 206.279C175.213 206.706 174.891 207.125 174.525 207.531C174.173 207.965 173.867 208.437 173.606 208.948L173.588 208.983L173.568 209.017C173.267 209.537 173.062 209.924 172.937 210.193C172.39 211.553 171.954 212.653 171.627 213.495C171.429 214.08 171.182 214.779 170.886 215.593C175.346 218.347 179.199 222.213 182.44 227.177C185.952 232.507 188.129 238.99 188.992 246.577C189.173 248.171 189.285 249.807 189.328 251.486C189.484 255.522 189.035 259.337 187.966 262.913C186.903 266.472 185.335 269.633 183.266 272.385C181.263 275.104 178.932 277.35 176.28 279.125C173.672 280.956 170.85 282.194 167.823 282.845C166.696 283.087 165.56 283.236 164.414 283.292C159.698 283.57 155.718 283.439 152.491 282.882C149.648 282.428 147.082 281.858 144.797 281.171C140.957 286.395 136.347 289.607 130.993 290.757C129.865 290.999 128.706 291.153 127.515 291.22ZM144.441 279.599C146.836 280.362 149.577 280.99 152.663 281.482C155.802 282.025 159.713 282.158 164.395 281.882C165.495 281.828 166.585 281.685 167.665 281.453C170.575 280.828 173.278 279.639 175.772 277.886C178.319 276.183 180.551 274.031 182.468 271.429C184.431 268.818 185.918 265.822 186.928 262.441C187.938 259.061 188.368 255.441 188.217 251.58C188.176 249.946 188.067 248.358 187.892 246.814C187.054 239.451 184.95 233.211 181.578 228.096C178.239 222.98 174.238 219.076 169.575 216.385C169.522 216.354 169.468 216.323 169.414 216.292C169.527 215.989 169.634 215.698 169.736 215.42C170.1 214.427 170.394 213.597 170.619 212.931C170.954 212.068 171.402 210.938 171.965 209.54C172.119 209.202 172.357 208.756 172.678 208.2C172.993 207.585 173.361 207.019 173.784 206.503C173.919 206.353 174.04 206.21 174.147 206.073C174.188 206.022 174.226 205.971 174.263 205.921C174.318 205.845 174.368 205.772 174.414 205.701C174.659 205.319 174.767 205.001 174.738 204.747C174.718 204.568 174.567 204.51 174.285 204.57C174.093 204.611 173.876 204.698 173.632 204.829C173.593 204.85 173.553 204.872 173.513 204.896C173.311 205.013 173.092 205.158 172.857 205.333C172.502 205.592 171.962 206.134 171.238 206.958C170.514 207.783 169.794 208.637 169.077 209.521C168.407 210.395 167.888 211.115 167.519 211.681L166.052 214.642C162.973 213.357 159.755 212.558 156.401 212.245C153.094 211.921 149.774 212.117 146.441 212.833C144.422 213.267 142.447 213.874 140.516 214.654C134.722 216.993 130.139 219.833 126.768 223.173C123.396 226.513 121.048 229.968 119.723 233.538C118.438 237.038 117.974 240.361 118.332 243.509C118.697 246.715 119.742 249.35 121.467 251.412C123.233 253.405 125.25 254.645 127.518 255.131C128.792 255.344 129.993 255.329 131.12 255.087C132.857 254.714 134.493 253.876 136.028 252.573C137.556 251.21 138.809 249.542 139.787 247.568C140.758 245.534 141.226 243.304 141.19 240.879C141.216 239.839 140.901 239.39 140.243 239.531C139.821 239.622 139.633 239.875 139.681 240.291C139.715 241.013 139.585 241.984 139.29 243.203C139.043 244.412 138.588 245.696 137.925 247.055C137.262 248.414 136.391 249.635 135.312 250.719C134.273 251.733 132.979 252.406 131.43 252.739C130.491 252.941 129.36 252.94 128.039 252.738C126.228 252.458 124.811 251.636 123.791 250.274C122.77 248.912 122.145 247.221 121.915 245.202C121.605 242.471 122.028 239.43 123.186 236.078C124.384 232.658 126.34 229.348 129.054 226.149C131.762 222.891 135.231 220.199 139.462 218.074C140.649 217.515 141.819 217.02 142.972 216.59C144.173 216.149 145.36 215.803 146.533 215.551C149.632 214.885 152.697 214.774 155.729 215.218C158.402 215.543 160.917 216.247 163.275 217.33C163.628 217.492 163.978 217.663 164.324 217.842C164.115 218.244 163.908 218.65 163.704 219.06C162.104 222.277 160.68 225.719 159.433 229.386C158.068 233.451 156.787 237.619 155.589 241.891C154.392 246.164 153.215 250.401 152.058 254.603C150.894 258.747 149.612 262.702 148.213 266.47C146.855 270.169 145.288 273.516 143.512 276.513C142.7 276.14 141.563 275.655 140.1 275.057C138.638 274.458 137.155 273.895 135.652 273.366C134.189 272.768 132.968 272.392 131.988 272.237C129.674 271.761 127.578 271.725 125.7 272.128C122.883 272.733 120.801 274.093 119.454 276.207C118.155 278.311 117.63 280.462 117.88 282.659C118.11 284.678 119.006 286.432 120.571 287.921C122.175 289.34 124.483 289.97 127.494 289.809C128.641 289.745 129.755 289.597 130.835 289.365C136.14 288.226 140.675 284.97 144.441 279.599ZM164.041 279.403C164.47 279.372 164.825 279.326 165.107 279.265L166.163 279.038C169.919 278.231 173.114 276.511 175.748 273.877C178.423 271.173 180.463 267.967 181.868 264.258C183.274 260.55 183.922 256.731 183.811 252.8C183.79 251.345 183.698 249.905 183.536 248.48C182.8 242.007 181.028 236.366 178.22 231.555C175.677 227.07 172.622 223.44 169.054 220.665C168.74 220.42 168.421 220.182 168.099 219.951C167.946 220.385 167.793 220.822 167.639 221.26C166.185 225.411 164.695 229.768 163.17 234.332C161.531 239.368 159.864 244.38 158.171 249.367C156.471 254.294 154.781 258.885 153.101 263.139C151.467 267.383 149.877 270.949 148.33 273.836C148.042 274.263 147.68 274.888 147.245 275.712C147.109 275.971 146.969 276.216 146.825 276.448C146.548 276.892 146.256 277.287 145.948 277.633C146.359 277.768 146.778 277.897 147.206 278.021C149.228 278.606 151.449 279.065 153.868 279.398C156.8 279.803 160.191 279.804 164.041 279.403ZM147.994 276.789C149.83 277.292 151.837 277.695 154.016 277.995C156.86 278.387 160.178 278.392 163.978 277.996L163.991 277.995L164.005 277.994C164.412 277.964 164.723 277.922 164.949 277.873L166.005 277.646C169.6 276.874 172.609 275.24 175.072 272.779C177.616 270.206 179.543 267.172 180.869 263.673C182.198 260.167 182.804 256.577 182.7 252.886L182.7 252.874L182.7 252.862C182.679 251.465 182.591 250.083 182.436 248.716C181.723 242.451 180.014 237.027 177.321 232.414L177.313 232.399C174.882 228.113 171.976 224.644 168.592 221.98C167.161 226.068 165.695 230.358 164.194 234.849C162.553 239.89 160.885 244.906 159.19 249.897L159.188 249.905C157.482 254.85 155.784 259.462 154.095 263.739C152.446 268.022 150.83 271.65 149.244 274.61L149.208 274.677L149.166 274.739C148.922 275.101 148.589 275.671 148.164 276.476C148.108 276.582 148.052 276.686 147.994 276.789ZM128.971 286.937C131.574 286.561 133.948 285.655 136.093 284.221C137.851 282.993 139.468 281.529 140.944 279.827C141.264 279.459 141.577 279.079 141.884 278.688C141.48 278.544 141.075 278.398 140.668 278.25C139.258 277.74 137.831 277.215 136.389 276.675C134.523 275.92 132.578 275.304 130.552 274.827C129.223 274.565 128.066 274.54 127.08 274.751C125.343 275.125 124.1 276.031 123.349 277.469C122.592 278.848 122.298 280.28 122.467 281.765C122.65 283.368 123.308 284.717 124.443 285.811C125.57 286.847 127.08 287.222 128.971 286.937ZM125.119 284.669C124.185 283.764 123.704 282.723 123.568 281.528C123.444 280.439 123.646 279.369 124.256 278.256L124.264 278.242L124.272 278.228C124.796 277.221 125.712 276.471 127.238 276.143C128.069 275.965 129.095 275.975 130.338 276.219C132.316 276.685 134.212 277.287 136.027 278.021L136.038 278.026L136.05 278.03C137.275 278.489 138.488 278.936 139.69 279.374C138.426 280.75 137.058 281.952 135.586 282.982C133.578 284.322 131.345 285.177 128.873 285.535L128.868 285.535C127.161 285.792 125.958 285.434 125.119 284.669ZM174.474 205.957C174.474 205.957 174.47 205.958 174.461 205.958C174.47 205.957 174.475 205.957 174.474 205.957Z" fill="#C9A421"/>
</g>
<g filter="url(#filter9_d_604_471)">
<path fill-rule="evenodd" clip-rule="evenodd" d="M310.009 151.131C311.722 152.181 313.481 152.471 315.286 152.003C317.335 151.471 318.998 150.479 320.275 149.027C321.6 147.562 322.649 145.826 323.422 143.82C324.184 141.754 324.784 139.636 325.223 137.468C325.651 135.239 326.051 133.143 326.423 131.178C326.507 130.783 326.528 130.466 326.487 130.228C326.435 129.93 326.287 129.812 326.043 129.876C325.751 129.951 325.521 130.167 325.351 130.522C325.349 130.526 325.347 130.53 325.345 130.534C325.341 130.542 325.338 130.55 325.334 130.558C325.228 130.791 325.146 131.082 325.09 131.431C324.858 132.736 324.527 134.348 324.096 136.266C323.714 138.171 323.161 140.12 322.437 142.114C321.703 144.048 320.775 145.752 319.655 147.226C318.535 148.7 317.17 149.646 315.56 150.064C314.243 150.405 313.237 150.044 312.541 148.979C311.846 147.914 311.369 146.637 311.11 145.148C310.892 143.896 310.777 142.65 310.765 141.407C310.801 140.153 310.879 139.136 310.999 138.358C311.73 138.168 312.626 137.748 313.686 137.1C314.736 136.391 315.77 135.594 316.788 134.707C317.806 133.82 318.624 132.953 319.242 132.108C320.68 130.116 321.707 128.106 322.323 126.078C322.938 124.05 323.117 122.291 322.857 120.802C322.609 119.372 322.002 118.377 321.038 117.818C320.133 117.306 319.144 117.189 318.07 117.467C316.509 117.873 314.965 118.959 313.437 120.725C311.908 122.492 310.613 124.572 309.551 126.965C308.297 129.719 307.403 132.784 306.868 136.161C306.324 139.478 306.285 142.477 306.752 145.158C307.26 148.077 308.346 150.068 310.009 151.131ZM305.722 135.885C306.277 132.378 307.209 129.172 308.526 126.278C309.643 123.763 311.011 121.563 312.633 119.689C314.269 117.797 315.999 116.546 317.827 116.071C319.122 115.735 320.372 115.868 321.53 116.523L321.539 116.528C322.876 117.304 323.687 118.701 324.001 120.505C324.322 122.348 324.081 124.394 323.419 126.574C322.743 128.799 321.631 130.957 320.119 133.052L320.114 133.059C319.423 134.005 318.533 134.94 317.467 135.869C316.413 136.786 315.342 137.613 314.252 138.349L314.231 138.363L314.21 138.376C313.432 138.852 312.708 139.23 312.044 139.49C311.994 140.031 311.956 140.674 311.934 141.424C311.947 142.558 312.053 143.7 312.253 144.851C312.479 146.149 312.886 147.217 313.455 148.089C313.663 148.408 313.89 148.587 314.147 148.679C314.419 148.777 314.796 148.803 315.317 148.667C316.691 148.31 317.842 147.513 318.798 146.255C319.828 144.9 320.687 143.326 321.372 141.524C322.069 139.603 322.597 137.737 322.96 135.926L322.964 135.907L322.969 135.888C323.395 133.99 323.72 132.409 323.946 131.139C324.132 130.007 324.638 128.781 325.8 128.479C326.098 128.402 326.548 128.381 326.974 128.719C327.399 129.057 327.567 129.567 327.63 129.931C327.725 130.478 327.659 131.039 327.558 131.517C327.187 133.479 326.788 135.571 326.361 137.794L326.358 137.81L326.358 137.81C325.902 140.063 325.279 142.262 324.488 144.406L324.484 144.417L324.48 144.427C323.644 146.599 322.504 148.486 321.065 150.078C319.606 151.735 317.74 152.825 315.529 153.399C313.454 153.938 311.425 153.596 309.485 152.407L309.476 152.401L309.468 152.396C307.408 151.08 306.165 148.655 305.608 145.455C305.102 142.546 305.154 139.347 305.722 135.885ZM312.608 136.013C313.146 135.718 313.782 135.323 314.515 134.83C316.011 133.756 317.298 132.364 318.377 130.651C319.407 128.952 320.123 127.209 320.526 125.423C320.919 123.578 321.016 122.089 320.819 120.957C320.591 119.646 320.087 119.092 319.306 119.295C318.721 119.447 317.999 120.133 317.14 121.352C316.282 122.571 315.293 124.509 314.175 127.165C313.497 128.836 312.888 130.613 312.349 132.496C312.078 133.444 311.849 134.263 311.662 134.953C311.477 135.633 311.334 136.188 311.231 136.616C311.581 136.525 312.04 136.324 312.608 136.013ZM313.127 134.118C313.376 133.96 313.646 133.784 313.936 133.589C315.291 132.614 316.459 131.351 317.443 129.792C318.394 128.22 319.037 126.642 319.397 125.054C319.768 123.306 319.818 122.071 319.676 121.254C319.633 121.006 319.584 120.839 319.543 120.733C319.537 120.72 319.533 120.709 319.528 120.698C319.459 120.723 319.3 120.806 319.043 121.05C318.764 121.315 318.425 121.716 318.027 122.283C317.26 123.372 316.322 125.187 315.219 127.809C314.565 129.42 313.976 131.139 313.453 132.967C313.336 133.376 313.227 133.759 313.127 134.118Z" fill="#0088C2"/>
</g>
<g filter="url(#filter10_d_604_471)">
<path fill-rule="evenodd" clip-rule="evenodd" d="M270.266 162.089C270.124 162.783 269.98 163.478 269.836 164.174C270.076 163.8 270.411 163.527 270.84 163.353C270.97 163.319 271.101 163.283 271.234 163.243C271.552 163.147 271.878 163.034 272.215 162.903C272.936 162.653 273.487 162.448 273.867 162.287C274.295 162.114 274.613 161.595 274.82 160.732C276.123 155.039 277.376 150.666 278.579 147.614C279.417 145.561 280.192 143.805 280.904 142.343C281.255 141.623 281.591 140.974 281.912 140.397C282.156 139.957 282.392 139.546 282.62 139.165C282.624 139.158 282.628 139.151 282.632 139.144C283.34 137.961 283.967 137.064 284.514 136.452C284.626 136.333 284.735 136.222 284.84 136.117C285.46 135.501 285.959 135.143 286.334 135.046C286.871 134.907 287.202 135.194 287.326 135.909C287.367 136.148 287.371 136.458 287.335 136.841C287.349 137.211 287.242 137.768 287.014 138.512C286.209 141.212 285.658 143.317 285.36 144.826C285.062 146.336 284.821 147.737 284.638 149.03C284.55 149.987 284.524 150.865 284.561 151.665C284.588 152.405 284.659 153.103 284.773 153.759C285.167 156.022 285.949 157.439 287.118 158.007C288.337 158.562 289.434 158.713 290.41 158.46C291.824 158.093 293.038 157.155 294.05 155.647C295.052 154.079 295.91 152.269 296.623 150.215C297.326 148.103 297.902 145.992 298.351 143.882C298.848 141.761 299.271 139.939 299.617 138.416C299.702 138.021 299.718 137.674 299.666 137.376C299.583 136.9 299.395 136.699 299.102 136.775C298.907 136.826 298.771 136.924 298.694 137.068C298.607 137.153 298.508 137.459 298.395 137.986C298.209 138.969 297.876 140.425 297.397 142.355C296.955 144.214 296.402 146.163 295.738 148.204C295.122 150.232 294.41 152.004 293.604 153.521C292.787 154.979 291.915 155.828 290.988 156.068C290.646 156.157 290.303 156.09 289.959 155.868C289.614 155.646 289.359 155.059 289.193 154.106C289.079 153.45 289.028 152.716 289.039 151.904C289.006 150.542 289.141 148.826 289.443 146.755C289.784 144.612 290.188 142.39 290.654 140.089C291.11 137.729 291.568 135.524 292.027 133.475C292.524 131.353 292.943 129.656 293.282 128.385L293.776 126.389C293.62 126.367 293.37 126.401 293.029 126.49C292.855 126.535 292.673 126.598 292.483 126.68C291.657 127.037 290.673 127.743 289.53 128.799C288.125 130.098 286.712 131.648 285.292 133.448C284.85 134.001 284.43 134.544 284.032 135.079C283.947 135.194 283.863 135.308 283.779 135.422C283.773 135.431 283.767 135.439 283.761 135.447C283.025 136.455 282.367 137.43 281.789 138.374C281.52 138.795 281.259 139.219 281.005 139.645C281.005 139.646 281.005 139.645 281.005 139.645C280.623 140.287 280.258 140.936 279.911 141.589C279.764 141.867 279.619 142.146 279.478 142.427C279.352 142.677 279.228 142.928 279.107 143.18C278.37 144.804 277.657 146.421 276.969 148.032C277.335 146.309 277.752 144.492 278.22 142.579C278.223 142.569 278.225 142.559 278.227 142.549C278.285 142.314 278.344 142.076 278.403 141.838C278.523 141.355 278.645 140.866 278.772 140.372C279.468 137.638 280.193 135.208 280.945 133.082C281.276 132.107 281.593 131.284 281.895 130.613C282.07 130.227 282.24 129.892 282.405 129.607C282.595 129.279 282.779 129.018 282.957 128.824C282.821 128.921 282.607 129.008 282.314 129.084C281.949 129.179 281.578 129.232 281.199 129.245C281.121 129.247 281.044 129.248 280.966 129.247C280.495 129.183 280.065 129.201 279.675 129.302C278.553 129.593 277.728 130.275 277.201 131.345C276.711 132.344 276.166 134.043 275.563 136.441C274.53 140.757 273.557 145.275 272.645 149.995C271.898 153.969 271.105 158 270.266 162.089ZM281.031 127.82C280.481 127.751 279.945 127.773 279.432 127.906C278.035 128.268 276.914 129.157 276.199 130.61L276.197 130.613C275.631 131.77 275.052 133.61 274.446 136.022L274.441 136.04C273.402 140.382 272.424 144.924 271.507 149.667L271.506 149.675C270.634 154.312 269.7 159.028 268.703 163.823L270.754 165.057C270.826 164.945 270.943 164.827 271.156 164.73C271.608 164.61 272.074 164.456 272.552 164.27C273.267 164.022 273.835 163.811 274.243 163.639C275.214 163.24 275.697 162.155 275.942 161.133L275.946 161.117C277.241 155.459 278.471 151.182 279.629 148.242C280.867 145.208 281.951 142.869 282.879 141.199C283.866 139.42 284.67 138.217 285.293 137.517C285.672 137.115 285.962 136.855 286.173 136.691L286.163 136.792L286.167 136.904C286.167 136.903 286.167 136.909 286.167 136.92C286.166 136.932 286.165 136.952 286.162 136.979C286.157 137.034 286.146 137.11 286.127 137.21C286.088 137.412 286.022 137.678 285.919 138.013L285.916 138.024C285.106 140.739 284.537 142.903 284.223 144.491C283.92 146.026 283.674 147.458 283.486 148.787L283.48 148.828L283.477 148.87C283.383 149.888 283.353 150.845 283.394 151.737C283.424 152.544 283.501 153.318 283.629 154.055C284.061 156.537 284.995 158.512 286.686 159.333L286.698 159.339L286.71 159.344C288.074 159.966 289.403 160.181 290.653 159.856C292.354 159.415 293.792 158.283 294.954 156.552L294.963 156.539L294.972 156.525C296.043 154.848 296.951 152.927 297.699 150.773L297.703 150.763L297.706 150.753C298.426 148.59 299.017 146.425 299.479 144.259C299.975 142.142 300.397 140.322 300.744 138.799L300.746 138.787L300.749 138.775C300.864 138.235 300.91 137.655 300.809 137.08C300.744 136.707 300.6 136.186 300.232 135.793C299.804 135.337 299.285 135.269 298.859 135.379C298.522 135.467 298.104 135.674 297.801 136.142C297.712 136.264 297.653 136.379 297.617 136.454C297.554 136.585 297.506 136.718 297.468 136.834C297.393 137.066 297.325 137.338 297.264 137.627L297.26 137.646L297.256 137.665C297.08 138.598 296.756 140.017 296.278 141.941L296.274 141.958C295.844 143.766 295.304 145.672 294.651 147.676L294.646 147.692L294.642 147.707C294.052 149.648 293.38 151.318 292.631 152.729C291.9 154.029 291.254 154.54 290.745 154.672C290.709 154.681 290.657 154.688 290.564 154.641C290.558 154.628 290.55 154.612 290.541 154.592C290.482 154.456 290.406 154.21 290.336 153.809C290.244 153.279 290.198 152.655 290.208 151.929L290.208 151.895L290.208 151.862C290.178 150.638 290.299 149.032 290.592 147.017C290.929 144.902 291.327 142.708 291.789 140.432L291.792 140.417C292.244 138.074 292.698 135.888 293.153 133.859C293.647 131.749 294.061 130.074 294.394 128.828L294.398 128.813L294.517 128.33C294.533 128.267 294.508 128.366 294.524 128.303L294.536 128.256L294.537 128.249L294.663 127.74L294.666 127.729L294.667 127.724L294.668 127.719L294.67 127.713L294.671 127.708L294.757 127.361L294.758 127.357L294.759 127.353L294.767 127.321L294.768 127.317L294.895 126.804L294.895 126.802L295.301 125.162L293.907 124.97C293.548 124.921 293.138 125.002 292.786 125.093C291.603 125.4 290.269 126.326 288.825 127.66C287.364 129.01 285.907 130.61 284.452 132.455C283.048 134.212 281.848 135.896 280.86 137.507C280.813 137.582 280.765 137.657 280.718 137.732C281.143 136.257 281.576 134.896 282.018 133.648L282.021 133.639L282.025 133.629C282.768 131.438 283.355 130.303 283.735 129.889L282.365 127.593C282.374 127.586 282.38 127.583 282.38 127.583C282.38 127.583 282.364 127.592 282.326 127.607C282.271 127.63 282.188 127.657 282.071 127.688C281.734 127.775 281.388 127.82 281.031 127.82Z" fill="#0088C2"/>
</g>
<g filter="url(#filter11_d_604_471)">
<path fill-rule="evenodd" clip-rule="evenodd" d="M254.914 128.444C255.506 128.913 256.167 129.052 256.899 128.862C257.875 128.609 258.651 127.941 259.227 126.857C259.803 125.773 259.993 124.666 259.796 123.534C259.651 122.7 259.282 122.048 258.691 121.579C258.099 121.11 257.413 120.976 256.633 121.179C255.755 121.407 255.022 122.033 254.436 123.057C253.849 124.081 253.654 125.159 253.851 126.291C254.007 127.185 254.361 127.902 254.914 128.444ZM253.155 165.795C254.105 166.856 255.482 167.153 257.287 166.684C258.653 166.33 259.818 165.405 260.781 163.909C261.745 162.414 262.559 160.645 263.223 158.605C263.926 156.492 264.483 154.417 264.893 152.38C265.072 151.492 265.238 150.666 265.39 149.902C265.587 148.916 265.762 148.035 265.914 147.258C265.924 147.173 265.933 147.091 265.941 147.014C265.945 146.976 265.948 146.94 265.951 146.905C265.952 146.892 265.953 146.88 265.954 146.867C265.979 146.548 265.977 146.302 265.947 146.129C265.874 145.712 265.716 145.535 265.472 145.598C265.227 145.662 265.053 145.925 264.949 146.388C264.932 146.464 264.916 146.545 264.903 146.632C264.901 146.648 264.898 146.665 264.896 146.682C264.877 146.769 264.858 146.857 264.84 146.944C264.832 146.982 264.824 147.019 264.816 147.056C264.638 147.879 264.453 148.706 264.26 149.538C263.83 151.386 263.361 153.257 262.852 155.152C262.116 157.958 261.274 160.294 260.324 162.16C260.093 162.593 259.692 163.071 259.12 163.593C258.548 164.115 258.018 164.439 257.53 164.566C256.75 164.769 256.142 164.646 255.707 164.199C255.321 163.738 255.061 163.121 254.926 162.347L254.801 161.632C254.791 161.572 254.789 161.417 254.797 161.166C254.804 160.915 254.803 160.324 254.794 159.392C254.801 159.141 254.865 158.626 254.984 157.848L255.221 156.572L258.262 137.569C258.437 136.527 258.494 135.827 258.432 135.47C258.37 135.113 258.147 134.859 257.764 134.709C257.419 134.487 256.886 134.501 256.165 134.751L252.171 135.974C252.3 136.128 252.528 136.411 252.855 136.824C252.946 136.926 253.028 137.039 253.102 137.161C253.284 137.462 253.411 137.825 253.485 138.249C253.547 138.606 253.547 139.042 253.483 139.557L251.24 156.111C251.131 156.949 251.062 157.87 251.033 158.874C251.042 159.805 251.124 160.718 251.28 161.612C251.57 163.28 252.195 164.674 253.155 165.795ZM252.328 139.335L250.087 155.878L250.086 155.887C249.968 156.792 249.895 157.771 249.864 158.823L249.863 158.857L249.864 158.891C249.874 159.915 249.964 160.921 250.136 161.909C250.473 163.842 251.208 165.497 252.347 166.827L252.356 166.838L252.366 166.848C253.701 168.341 255.526 168.601 257.53 168.081C259.195 167.648 260.588 166.517 261.7 164.792C262.742 163.175 263.608 161.285 264.308 159.138C265.029 156.968 265.604 154.829 266.028 152.721C266.439 150.683 266.78 148.972 267.051 147.591L267.062 147.531L267.07 147.471C267.136 146.935 267.178 146.339 267.09 145.832C267.032 145.499 266.903 145.01 266.563 144.63C266.157 144.177 265.651 144.092 265.229 144.202C264.2 144.469 263.867 145.637 263.753 146.375C263.173 149.096 262.503 151.873 261.741 154.707L261.738 154.717C261.025 157.439 260.221 159.655 259.338 161.392C259.214 161.62 258.939 161.976 258.42 162.45C257.929 162.897 257.554 163.1 257.287 163.17C256.777 163.302 256.57 163.2 256.487 163.132C256.312 162.905 256.16 162.569 256.069 162.05L255.961 161.43C255.961 161.384 255.962 161.313 255.965 161.217C255.973 160.929 255.972 160.315 255.963 159.418C255.971 159.27 256.016 158.873 256.129 158.137L256.18 157.86L256.181 157.856L256.184 157.843L256.185 157.834L256.19 157.809L256.191 157.805L256.199 157.763C256.207 157.716 256.193 157.793 256.202 157.746L256.215 157.674L256.216 157.67L256.219 157.651C256.225 157.619 256.223 157.633 256.22 157.645L256.239 157.543L256.24 157.54L256.279 157.332L256.279 157.329L256.29 157.272L256.29 157.269L256.292 157.259C256.292 157.258 256.293 157.256 256.293 157.254L256.292 157.259C256.291 157.263 256.291 157.264 256.294 157.248L256.338 157.011L256.338 157.009L256.34 157.003L256.34 157.002L256.34 157C256.349 156.955 256.334 157.034 256.342 156.989L256.348 156.958C256.35 156.949 256.352 156.934 256.348 156.958L256.355 156.919L256.356 156.916L256.361 156.891L256.361 156.889C256.361 156.89 256.361 156.889 256.361 156.889L256.365 156.867L259.407 137.857C259.407 137.854 259.407 137.852 259.408 137.85C259.499 137.305 259.565 136.819 259.599 136.403C259.631 136.016 259.645 135.573 259.575 135.173C259.405 134.195 258.808 133.649 258.211 133.387C257.47 132.969 256.603 133.118 255.864 133.371L249.858 135.211L251.355 136.996C251.469 137.133 251.686 137.402 252.014 137.816L252.039 137.848L252.065 137.877C252.174 137.999 252.28 138.192 252.342 138.545C252.365 138.68 252.378 138.929 252.328 139.335ZM264.801 146.415C264.797 146.4 264.799 146.402 264.803 146.426C264.803 146.424 264.803 146.422 264.802 146.42M264.801 146.415C264.801 146.411 264.801 146.409 264.801 146.409C264.801 146.409 264.801 146.413 264.802 146.42M254.229 129.602L254.183 129.558C253.407 128.798 252.916 127.785 252.708 126.588C252.438 125.036 252.722 123.558 253.478 122.239C254.209 120.963 255.181 120.096 256.39 119.783C257.43 119.513 258.441 119.678 259.328 120.382C260.176 121.055 260.729 122.028 260.939 123.237C261.209 124.784 260.931 126.274 260.208 127.635C259.474 129.014 258.441 129.922 257.142 130.259C256.128 130.522 255.146 130.33 254.278 129.641L254.229 129.602Z" fill="#0088C2"/>
</g>
<g filter="url(#filter12_d_604_471)">
<path fill-rule="evenodd" clip-rule="evenodd" d="M213.924 188.243L213.918 188.243C211.902 188.248 209.85 188.005 207.761 187.517L207.747 187.513L207.747 187.513C204.301 186.655 201.327 185.098 198.858 182.811C196.427 180.611 194.468 177.887 192.989 174.652C191.53 171.46 190.479 168.007 189.833 164.298C189.161 160.433 188.865 156.473 188.946 152.422L188.946 152.411L188.947 152.4C189.077 148.349 189.539 144.399 190.334 140.552C191.064 136.913 192.01 133.564 193.176 130.51C192.63 129.138 192.094 127.586 191.569 125.858L191.563 125.838L191.558 125.819C190.995 123.79 190.528 121.706 190.155 119.567C189.587 116.304 189.346 113.102 189.438 109.966L189.438 109.942L189.44 109.918C189.472 109.34 189.583 108.726 189.865 108.196C190.17 107.622 190.626 107.244 191.17 107.103C191.65 106.978 192.199 107.084 192.633 107.579C193 107.997 193.151 108.545 193.224 108.963C193.284 109.311 193.334 109.703 193.319 110.079C193.374 110.947 193.434 111.842 193.498 112.764C193.611 113.685 193.751 114.631 193.92 115.601C194.263 117.572 194.696 119.487 195.218 121.347C195.436 122.126 195.654 122.878 195.872 123.604C198.33 118.163 201.377 113.684 205.024 110.195C209.309 106.059 214.083 103.303 219.335 101.94C220.693 101.588 222.022 101.339 223.321 101.196C227.425 100.706 231.004 101.066 234.017 102.352C236.973 103.559 239.373 105.413 241.159 107.953C242.961 110.434 244.147 113.266 244.697 116.431C245.234 119.512 245.182 122.693 244.56 125.959C243.937 129.234 242.754 132.368 241.032 135.358L241.024 135.373L241.023 135.373C239.274 138.329 236.974 140.942 234.148 143.225L234.139 143.232L234.139 143.232C231.311 145.473 227.974 147.077 224.152 148.069C223.3 148.291 222.443 148.481 221.58 148.641C220.7 148.804 219.741 148.923 218.706 149L218.704 149C214.582 149.296 210.652 148.667 206.924 147.103C203.69 145.745 200.789 143.321 198.214 139.889C198.123 140.332 198.026 140.837 197.924 141.409L197.921 141.427L197.921 141.427C197.562 143.318 197.264 145.61 197.031 148.311C196.799 150.985 196.702 153.879 196.743 156.995L196.743 157C196.773 160.011 197.044 162.99 197.557 165.936C198.043 168.729 198.816 171.351 199.875 173.807C200.888 176.123 202.27 178.018 204.03 179.508L204.037 179.514L204.044 179.52C205.765 181.022 207.945 181.954 210.638 182.253C211.975 182.381 213.342 182.384 214.74 182.261C216.141 182.136 217.548 181.891 218.961 181.525C221.691 180.816 224.323 179.683 226.86 178.121C229.392 176.563 231.66 174.656 233.667 172.4L233.672 172.395C236.351 169.416 238.22 166.326 239.33 163.135C240.477 159.743 241.451 156.023 242.246 151.971C242.377 151.113 242.774 150.031 243.797 149.765C244.22 149.655 244.725 149.74 245.131 150.193C245.471 150.573 245.601 151.063 245.659 151.395C245.768 152.022 245.679 152.661 245.536 153.222C244.965 156.119 244.357 158.815 243.71 161.308L243.706 161.324L243.706 161.324C243.029 163.829 242.148 166.225 241.063 168.511C239.965 170.826 238.491 173.179 236.659 175.571L236.657 175.573C234.543 178.318 232.07 180.759 229.243 182.902C226.377 185.076 223.241 186.602 219.845 187.483C217.957 187.973 215.983 188.225 213.924 188.243ZM244.498 152.43C244.545 152.144 244.551 151.898 244.515 151.692C244.443 151.275 244.284 151.098 244.04 151.161C243.755 151.236 243.556 151.505 243.446 151.97C243.436 152.012 243.426 152.056 243.418 152.102C243.408 152.154 243.399 152.208 243.391 152.264C243.38 152.319 243.369 152.375 243.358 152.43C243.352 152.462 243.346 152.494 243.339 152.526C242.94 154.537 242.497 156.47 242.01 158.326C241.52 160.191 240.986 161.978 240.408 163.687C239.219 167.109 237.236 170.363 234.459 173.45C232.369 175.799 230.011 177.781 227.386 179.396C224.761 181.012 222.033 182.187 219.204 182.921C217.74 183.301 216.28 183.555 214.824 183.684C213.368 183.813 211.94 183.81 210.539 183.676C207.68 183.359 205.288 182.361 203.364 180.681C201.45 179.061 199.943 176.992 198.842 174.476C197.731 171.9 196.921 169.152 196.413 166.233C195.884 163.195 195.605 160.123 195.574 157.017C195.533 153.852 195.631 150.9 195.868 148.161C196.105 145.422 196.41 143.07 196.782 141.105C196.96 140.106 197.13 139.268 197.29 138.592C197.454 137.899 197.609 137.376 197.754 137.023C198.031 137.452 198.313 137.868 198.598 138.269C201.182 141.907 204.084 144.401 207.304 145.753C210.88 147.253 214.657 147.86 218.635 147.575C219.642 147.5 220.565 147.385 221.405 147.23C222.245 147.074 223.079 146.888 223.909 146.673C227.616 145.711 230.814 144.164 233.503 142.034C236.23 139.832 238.421 137.333 240.076 134.537C241.721 131.682 242.836 128.714 243.422 125.636C244.008 122.557 244.052 119.588 243.554 116.728C243.046 113.809 241.954 111.196 240.278 108.892C238.651 106.574 236.438 104.845 233.639 103.703C230.829 102.502 227.426 102.14 223.43 102.617C222.179 102.755 220.895 102.995 219.578 103.336C214.504 104.654 209.894 107.314 205.747 111.317C202.001 114.901 198.892 119.587 196.419 125.377C196.18 125.938 195.947 126.509 195.719 127.09C195.526 126.511 195.334 125.912 195.14 125.293C194.798 124.195 194.455 123.034 194.112 121.809C193.574 119.894 193.129 117.924 192.777 115.898C192.6 114.885 192.454 113.896 192.337 112.93C192.268 111.951 192.205 111.002 192.147 110.083C192.165 109.892 192.143 109.618 192.08 109.26C191.977 108.664 191.754 108.411 191.413 108.499C190.925 108.626 190.656 109.132 190.606 110.016C190.518 113.028 190.749 116.113 191.299 119.27C191.662 121.356 192.117 123.386 192.665 125.361C193.261 127.323 193.865 129.035 194.476 130.495C193.235 133.619 192.233 137.086 191.468 140.896C190.693 144.647 190.242 148.5 190.115 152.456C190.036 156.4 190.324 160.248 190.977 164.002C191.599 167.576 192.61 170.894 194.01 173.956C195.409 177.017 197.259 179.588 199.559 181.669C201.869 183.809 204.676 185.291 207.981 186.115C210.001 186.587 211.979 186.82 213.916 186.816C215.902 186.798 217.797 186.556 219.602 186.087C222.871 185.239 225.879 183.773 228.627 181.689C231.374 179.606 233.767 177.242 235.805 174.595C237.592 172.264 239.007 169.997 240.052 167.795C241.096 165.594 241.944 163.288 242.596 160.877C242.776 160.183 242.953 159.472 243.127 158.744C243.573 156.884 244.001 154.916 244.409 152.84C244.433 152.75 244.453 152.663 244.47 152.58C244.476 152.551 244.481 152.523 244.487 152.495C244.491 152.473 244.494 152.452 244.498 152.43ZM212.147 111.617C215.066 109.053 218.185 107.341 221.502 106.48C222.575 106.201 223.664 106.012 224.768 105.912C227.779 105.629 230.351 106.051 232.484 107.178C234.657 108.234 236.398 109.743 237.709 111.707C239.019 113.671 239.887 115.874 240.312 118.317C240.748 120.819 240.715 123.412 240.213 126.095C239.76 128.766 238.807 131.348 237.355 133.842C235.941 136.264 234.05 138.436 231.682 140.359C229.304 142.221 226.431 143.59 223.065 144.464C221.894 144.767 220.659 144.995 219.36 145.145C215.255 145.588 211.43 144.993 207.882 143.361C204.384 141.716 201.329 138.523 198.72 133.783C200.2 129.103 202.09 124.876 204.391 121.103C206.681 117.27 209.266 114.108 212.147 111.617ZM200.035 133.6C201.444 129.31 203.209 125.43 205.328 121.955L205.328 121.955L205.335 121.944C207.558 118.224 210.055 115.175 212.823 112.782L212.823 112.782L212.83 112.776C215.625 110.321 218.595 108.694 221.745 107.876C222.766 107.611 223.803 107.431 224.855 107.336L224.858 107.336C227.734 107.065 230.105 107.477 232.02 108.489L232.036 108.497L232.052 108.505C234.063 109.482 235.633 110.856 236.803 112.609C237.998 114.399 238.783 116.396 239.169 118.613C239.566 120.898 239.54 123.28 239.073 125.777L239.071 125.791L239.068 125.805C238.652 128.26 237.772 130.662 236.402 133.014C235.085 135.27 233.307 137.323 231.043 139.163C228.807 140.912 226.076 142.223 222.822 143.067C221.7 143.358 220.51 143.578 219.253 143.724C215.311 144.148 211.665 143.575 208.298 142.027C205.222 140.579 202.461 137.81 200.035 133.6ZM243.369 151.976C243.368 151.971 243.368 151.968 243.367 151.968C243.367 151.969 243.368 151.972 243.369 151.977C243.369 151.977 243.369 151.976 243.369 151.976Z" fill="#0088C2"/>
</g>
</g>
<defs>
<filter id="filter0_d_604_471" x="0" y="0" width="527.462" height="471.565" filterUnits="userSpaceOnUse" color-interpolation-filters="sRGB">
<feFlood flood-opacity="0" result="BackgroundImageFix"/>
<feColorMatrix in="SourceAlpha" type="matrix" values="0 0 0 0 0 0 0 0 0 0 0 0 0 0 0 0 0 0 127 0" result="hardAlpha"/>
<feOffset dy="4"/>
<feGaussianBlur stdDeviation="2"/>
<feComposite in2="hardAlpha" operator="out"/>
<feColorMatrix type="matrix" values="0 0 0 0 0 0 0 0 0 0 0 0 0 0 0 0 0 0 0.3 0"/>
<feBlend mode="normal" in2="BackgroundImageFix" result="effect1_dropShadow_604_471"/>
<feBlend mode="normal" in="SourceGraphic" in2="effect1_dropShadow_604_471" result="shape"/>
</filter>
<filter id="filter1_d_604_471" x="347.453" y="196.917" width="43.8741" height="50.4839" filterUnits="userSpaceOnUse" color-interpolation-filters="sRGB">
<feFlood flood-opacity="0" result="BackgroundImageFix"/>
<feColorMatrix in="SourceAlpha" type="matrix" values="0 0 0 0 0 0 0 0 0 0 0 0 0 0 0 0 0 0 127 0" result="hardAlpha"/>
<feOffset dy="2"/>
<feGaussianBlur stdDeviation="3"/>
<feComposite in2="hardAlpha" operator="out"/>
<feColorMatrix type="matrix" values="0 0 0 0 0.788235 0 0 0 0 0.643137 0 0 0 0 0.129412 0 0 0 1 0"/>
<feBlend mode="normal" in2="BackgroundImageFix" result="effect1_dropShadow_604_471"/>
<feBlend mode="normal" in="SourceGraphic" in2="effect1_dropShadow_604_471" result="shape"/>
</filter>
<filter id="filter2_d_604_471" x="329.814" y="189.876" width="29.0609" height="60.0161" filterUnits="userSpaceOnUse" color-interpolation-filters="sRGB">
<feFlood flood-opacity="0" result="BackgroundImageFix"/>
<feColorMatrix in="SourceAlpha" type="matrix" values="0 0 0 0 0 0 0 0 0 0 0 0 0 0 0 0 0 0 127 0" result="hardAlpha"/>
<feOffset dy="2"/>
<feGaussianBlur stdDeviation="3"/>
<feComposite in2="hardAlpha" operator="out"/>
<feColorMatrix type="matrix" values="0 0 0 0 0.788235 0 0 0 0 0.643137 0 0 0 0 0.129412 0 0 0 1 0"/>
<feBlend mode="normal" in2="BackgroundImageFix" result="effect1_dropShadow_604_471"/>
<feBlend mode="normal" in="SourceGraphic" in2="effect1_dropShadow_604_471" result="shape"/>
</filter>
<filter id="filter3_d_604_471" x="300.101" y="217.085" width="32.5112" height="22.2451" filterUnits="userSpaceOnUse" color-interpolation-filters="sRGB">
<feFlood flood-opacity="0" result="BackgroundImageFix"/>
<feColorMatrix in="SourceAlpha" type="matrix" values="0 0 0 0 0 0 0 0 0 0 0 0 0 0 0 0 0 0 127 0" result="hardAlpha"/>
<feOffset dy="2"/>
<feGaussianBlur stdDeviation="3"/>
<feComposite in2="hardAlpha" operator="out"/>
<feColorMatrix type="matrix" values="0 0 0 0 0.788235 0 0 0 0 0.643137 0 0 0 0 0.129412 0 0 0 1 0"/>
<feBlend mode="normal" in2="BackgroundImageFix" result="effect1_dropShadow_604_471"/>
<feBlend mode="normal" in="SourceGraphic" in2="effect1_dropShadow_604_471" result="shape"/>
</filter>
<filter id="filter4_d_604_471" x="267.152" y="214.174" width="33.8705" height="49.0415" filterUnits="userSpaceOnUse" color-interpolation-filters="sRGB">
<feFlood flood-opacity="0" result="BackgroundImageFix"/>
<feColorMatrix in="SourceAlpha" type="matrix" values="0 0 0 0 0 0 0 0 0 0 0 0 0 0 0 0 0 0 127 0" result="hardAlpha"/>
<feOffset dy="2"/>
<feGaussianBlur stdDeviation="3"/>
<feComposite in2="hardAlpha" operator="out"/>
<feColorMatrix type="matrix" values="0 0 0 0 0.788235 0 0 0 0 0.643137 0 0 0 0 0.129412 0 0 0 1 0"/>
<feBlend mode="normal" in2="BackgroundImageFix" result="effect1_dropShadow_604_471"/>
<feBlend mode="normal" in="SourceGraphic" in2="effect1_dropShadow_604_471" result="shape"/>
</filter>
<filter id="filter5_d_604_471" x="240.544" y="218.259" width="32.0615" height="51.5459" filterUnits="userSpaceOnUse" color-interpolation-filters="sRGB">
<feFlood flood-opacity="0" result="BackgroundImageFix"/>
<feColorMatrix in="SourceAlpha" type="matrix" values="0 0 0 0 0 0 0 0 0 0 0 0 0 0 0 0 0 0 127 0" result="hardAlpha"/>
<feOffset dy="2"/>
<feGaussianBlur stdDeviation="3"/>
<feComposite in2="hardAlpha" operator="out"/>
<feColorMatrix type="matrix" values="0 0 0 0 0.788235 0 0 0 0 0.643137 0 0 0 0 0.129412 0 0 0 1 0"/>
<feBlend mode="normal" in2="BackgroundImageFix" result="effect1_dropShadow_604_471"/>
<feBlend mode="normal" in="SourceGraphic" in2="effect1_dropShadow_604_471" result="shape"/>
</filter>
<filter id="filter6_d_604_471" x="218.783" y="213.729" width="29.0609" height="60.0161" filterUnits="userSpaceOnUse" color-interpolation-filters="sRGB">
<feFlood flood-opacity="0" result="BackgroundImageFix"/>
<feColorMatrix in="SourceAlpha" type="matrix" values="0 0 0 0 0 0 0 0 0 0 0 0 0 0 0 0 0 0 127 0" result="hardAlpha"/>
<feOffset dy="2"/>
<feGaussianBlur stdDeviation="3"/>
<feComposite in2="hardAlpha" operator="out"/>
<feColorMatrix type="matrix" values="0 0 0 0 0.788235 0 0 0 0 0.643137 0 0 0 0 0.129412 0 0 0 1 0"/>
<feBlend mode="normal" in2="BackgroundImageFix" result="effect1_dropShadow_604_471"/>
<feBlend mode="normal" in="SourceGraphic" in2="effect1_dropShadow_604_471" result="shape"/>
</filter>
<filter id="filter7_d_604_471" x="188.854" y="223.19" width="38.3751" height="54.9941" filterUnits="userSpaceOnUse" color-interpolation-filters="sRGB">
<feFlood flood-opacity="0" result="BackgroundImageFix"/>
<feColorMatrix in="SourceAlpha" type="matrix" values="0 0 0 0 0 0 0 0 0 0 0 0 0 0 0 0 0 0 127 0" result="hardAlpha"/>
<feOffset dy="2"/>
<feGaussianBlur stdDeviation="3"/>
<feComposite in2="hardAlpha" operator="out"/>
<feColorMatrix type="matrix" values="0 0 0 0 0.788235 0 0 0 0 0.643137 0 0 0 0 0.129412 0 0 0 1 0"/>
<feBlend mode="normal" in2="BackgroundImageFix" result="effect1_dropShadow_604_471"/>
<feBlend mode="normal" in="SourceGraphic" in2="effect1_dropShadow_604_471" result="shape"/>
</filter>
<filter id="filter8_d_604_471" x="110.708" y="199.136" width="84.6508" height="100.109" filterUnits="userSpaceOnUse" color-interpolation-filters="sRGB">
<feFlood flood-opacity="0" result="BackgroundImageFix"/>
<feColorMatrix in="SourceAlpha" type="matrix" values="0 0 0 0 0 0 0 0 0 0 0 0 0 0 0 0 0 0 127 0" result="hardAlpha"/>
<feOffset dy="2"/>
<feGaussianBlur stdDeviation="3"/>
<feComposite in2="hardAlpha" operator="out"/>
<feColorMatrix type="matrix" values="0 0 0 0 0.788235 0 0 0 0 0.643137 0 0 0 0 0.129412 0 0 0 1 0"/>
<feBlend mode="normal" in2="BackgroundImageFix" result="effect1_dropShadow_604_471"/>
<feBlend mode="normal" in="SourceGraphic" in2="effect1_dropShadow_604_471" result="shape"/>
</filter>
<filter id="filter9_d_604_471" x="299.26" y="111.893" width="34.4164" height="49.7549" filterUnits="userSpaceOnUse" color-interpolation-filters="sRGB">
<feFlood flood-opacity="0" result="BackgroundImageFix"/>
<feColorMatrix in="SourceAlpha" type="matrix" values="0 0 0 0 0 0 0 0 0 0 0 0 0 0 0 0 0 0 127 0" result="hardAlpha"/>
<feOffset dy="2"/>
<feGaussianBlur stdDeviation="3"/>
<feComposite in2="hardAlpha" operator="out"/>
<feColorMatrix type="matrix" values="0 0 0 0 0 0 0 0 0 0.533333 0 0 0 0 0.760784 0 0 0 1 0"/>
<feBlend mode="normal" in2="BackgroundImageFix" result="effect1_dropShadow_604_471"/>
<feBlend mode="normal" in="SourceGraphic" in2="effect1_dropShadow_604_471" result="shape"/>
</filter>
<filter id="filter10_d_604_471" x="262.703" y="120.955" width="44.1619" height="52.1021" filterUnits="userSpaceOnUse" color-interpolation-filters="sRGB">
<feFlood flood-opacity="0" result="BackgroundImageFix"/>
<feColorMatrix in="SourceAlpha" type="matrix" values="0 0 0 0 0 0 0 0 0 0 0 0 0 0 0 0 0 0 127 0" result="hardAlpha"/>
<feOffset dy="2"/>
<feGaussianBlur stdDeviation="3"/>
<feComposite in2="hardAlpha" operator="out"/>
<feColorMatrix type="matrix" values="0 0 0 0 0 0 0 0 0 0.533333 0 0 0 0 0.760784 0 0 0 1 0"/>
<feBlend mode="normal" in2="BackgroundImageFix" result="effect1_dropShadow_604_471"/>
<feBlend mode="normal" in="SourceGraphic" in2="effect1_dropShadow_604_471" result="shape"/>
</filter>
<filter id="filter11_d_604_471" x="243.858" y="115.66" width="29.2823" height="60.666" filterUnits="userSpaceOnUse" color-interpolation-filters="sRGB">
<feFlood flood-opacity="0" result="BackgroundImageFix"/>
<feColorMatrix in="SourceAlpha" type="matrix" values="0 0 0 0 0 0 0 0 0 0 0 0 0 0 0 0 0 0 127 0" result="hardAlpha"/>
<feOffset dy="2"/>
<feGaussianBlur stdDeviation="3"/>
<feComposite in2="hardAlpha" operator="out"/>
<feColorMatrix type="matrix" values="0 0 0 0 0 0 0 0 0 0.533333 0 0 0 0 0.760784 0 0 0 1 0"/>
<feBlend mode="normal" in2="BackgroundImageFix" result="effect1_dropShadow_604_471"/>
<feBlend mode="normal" in="SourceGraphic" in2="effect1_dropShadow_604_471" result="shape"/>
</filter>
<filter id="filter12_d_604_471" x="182.933" y="96.9858" width="68.7742" height="99.2573" filterUnits="userSpaceOnUse" color-interpolation-filters="sRGB">
<feFlood flood-opacity="0" result="BackgroundImageFix"/>
<feColorMatrix in="SourceAlpha" type="matrix" values="0 0 0 0 0 0 0 0 0 0 0 0 0 0 0 0 0 0 127 0" result="hardAlpha"/>
<feOffset dy="2"/>
<feGaussianBlur stdDeviation="3"/>
<feComposite in2="hardAlpha" operator="out"/>
<feColorMatrix type="matrix" values="0 0 0 0 0 0 0 0 0 0.533333 0 0 0 0 0.760784 0 0 0 1 0"/>
<feBlend mode="normal" in2="BackgroundImageFix" result="effect1_dropShadow_604_471"/>
<feBlend mode="normal" in="SourceGraphic" in2="effect1_dropShadow_604_471" result="shape"/>
</filter>
</defs>
</svg>
