<svg width="2075" height="1469" viewBox="0 0 2075 1469" fill="none" xmlns="http://www.w3.org/2000/svg">
<path d="M1492.44 960.941L1524.56 969.241L1448.07 1326.87L1405.89 1316.74L1492.44 960.941Z" fill="#4A4A4A"/>
<path d="M1080.47 774.084L1104.92 791.317L1021.62 1153.72L986.258 1138.81L1080.47 774.084Z" fill="#4A4A4A"/>
<path d="M700.917 501.358L725.363 518.592L618.863 875.495L593.552 855.549L700.917 501.358Z" fill="#4A4A4A"/>
<path d="M336.271 188.509L355.542 203.226L230.27 552.859L202.986 530.644L336.271 188.509Z" fill="#4A4A4A"/>
<path d="M1898.95 1350.58L1995.56 1003.49L1980.28 999.669L1956.35 1003.64L1892.75 1006.67L1844.79 1008.79L1795.14 1004.95L1746.03 1001.16L1669.69 995.265L1518.07 969.799L1438.83 1321.4L1484.54 1334.45L1585.48 1348.6L1688.72 1360.8L1767.52 1362.65L1844.88 1362.28L1898.95 1350.58Z" fill="url(#paint0_linear_660_215)"/>
<path d="M1416.24 1314.89L1499.05 965.685L1393.95 928.994L1270.84 875.038L1099.54 784.552L1010.58 1150.75L1196.17 1243.92L1416.24 1314.89Z" fill="url(#paint1_linear_660_215)"/>
<path d="M995.704 1141.66L1084.66 775.466L971.641 702.18L874.187 635.918L717.64 514.292L614.301 871.968L632.794 889.8L685.22 927.186L701.491 939.026L733.417 963.716L766.7 991.686L784.897 999.441L796.032 1008.24L802.978 1015.65L848.377 1046.68L899.608 1078.68L995.704 1141.66Z" fill="url(#paint2_linear_660_215)"/>
<path d="M604.849 862.242L706.464 506.02L642.897 452.957L568.52 386.889L346.96 203.093L228.338 550.064L258.088 575.115L377.743 673.784L479.729 757.859L604.849 862.242Z" fill="url(#paint3_linear_660_215)"/>
<path d="M213.095 538.833L333.771 193.079L306.818 173.535L294.203 163.036L251.223 128.496L181.25 74.9388L85.1886 442.702L213.095 538.833Z" fill="url(#paint4_linear_660_215)"/>
<g filter="url(#filter0_d_660_215)">
<path fill-rule="evenodd" clip-rule="evenodd" d="M1211.77 756.706C1538.69 925.353 1876.11 936.944 2015.69 916.677L2000.6 982.021L2009.55 940.637C2009.63 932.53 1996.13 926.559 1981.89 930.22L1970.33 982.588C1969.73 990.302 1992.29 1003.85 1997.52 995.384L1995.52 1004.02C1887.09 1021.93 1601.16 1027.35 1343.55 913.99C1255.26 875.136 1000.06 758.35 679.551 485.95C667.382 475.607 651.948 462.334 633.79 446.717L633.782 446.71C534.64 361.445 354.295 206.342 180.554 77.0012L204.147 7.91434C354.715 111.621 515.17 249.912 627.789 346.974L627.793 346.978L627.819 347C668.962 382.46 703.718 412.415 729.274 433.168C976.886 634.255 1143.85 721.667 1211.77 756.706ZM233.787 48.3034C256.087 43.252 261.484 58.2033 261.395 66.3103L244.927 112.664C240.419 122.37 215.23 100.846 215.839 92.9553L233.787 48.3034ZM446.862 216.788C446.951 208.681 445.222 194.911 422.921 199.962L408.096 245.914C407.487 253.804 430.047 274.596 434.556 264.89L446.862 216.788ZM515.93 275.119C538.23 270.067 539.959 283.837 539.87 291.945L527.564 340.046C523.055 349.752 500.495 328.96 501.104 321.07L515.93 275.119ZM724.313 441.781C724.402 433.674 712.882 422.907 698.636 426.569L683.242 479.884C682.633 487.775 705.581 503.546 710.089 493.84L724.313 441.781ZM795.589 499.329C809.834 495.667 821.354 506.434 821.265 514.541L807.042 566.601C802.533 576.307 779.585 560.535 780.195 552.645L795.589 499.329ZM1152.66 743.332C1152.75 735.225 1141.23 724.458 1126.99 728.12L1111.59 781.435C1110.98 789.326 1133.93 805.097 1138.44 795.391L1152.66 743.332ZM1174.31 755.057C1188.56 751.395 1200.08 762.162 1199.99 770.269L1185.76 822.328C1181.26 832.034 1158.31 816.263 1158.92 808.373L1174.31 755.057ZM1249.13 794.515C1249.22 786.408 1235.72 780.437 1221.47 784.099L1209.91 836.466C1209.3 844.357 1232.93 858.352 1237.43 848.646L1249.13 794.515ZM1475.23 884.748C1489.48 881.086 1502.98 887.058 1502.89 895.165L1491.19 949.295C1486.68 959.001 1463.06 945.006 1463.67 937.116L1475.23 884.748ZM1950.01 946.623C1950.1 938.516 1936.6 932.545 1922.35 936.207L1910.79 988.574C1910.18 996.465 1933.81 1010.46 1938.31 1000.75L1950.01 946.623ZM1890.96 946.297C1891.05 938.19 1877.55 932.219 1863.31 935.881L1851.75 988.248C1851.14 996.139 1874.76 1010.13 1879.27 1000.43L1890.96 946.297ZM1808.45 936.937C1822.69 933.275 1836.2 939.246 1836.11 947.353L1824.41 1001.48C1819.9 1011.19 1796.28 997.195 1796.89 989.304L1808.45 936.937ZM1777.39 942.819C1777.47 934.712 1763.97 928.74 1749.73 932.402L1738.17 984.77C1737.56 992.66 1761.18 1006.66 1765.69 996.949L1777.39 942.819ZM1691.01 927.868C1705.25 924.206 1718.75 930.177 1718.66 938.284L1706.97 992.414C1702.46 1002.12 1678.83 988.126 1679.44 980.235L1691.01 927.868ZM1668.81 930.202C1668.9 922.095 1655.39 916.123 1641.15 919.785L1629.59 972.153C1628.98 980.043 1652.6 994.038 1657.11 984.332L1668.81 930.202ZM1587.1 910.32C1601.35 906.658 1614.85 912.629 1614.76 920.736L1603.06 974.867C1598.56 984.573 1574.93 970.578 1575.54 962.687L1587.1 910.32ZM1556.85 905.682C1556.94 897.575 1543.44 891.603 1529.19 895.265L1517.63 947.633C1517.02 955.523 1540.65 969.518 1545.15 959.812L1556.85 905.682ZM1426.03 868.249C1440.27 864.587 1453.77 870.558 1453.68 878.665L1441.98 932.796C1437.48 942.502 1413.85 928.507 1414.46 920.616L1426.03 868.249ZM1400.45 858.68C1400.54 850.573 1387.04 844.601 1372.79 848.263L1361.23 900.631C1360.62 908.521 1384.24 922.516 1388.75 912.81L1400.45 858.68ZM1323.99 826.503C1338.24 822.841 1351.74 828.813 1351.65 836.92L1339.95 891.05C1335.44 900.756 1311.82 886.761 1312.43 878.871L1323.99 826.503ZM1298.5 815.883C1298.59 807.776 1285.09 801.804 1270.84 805.466L1259.28 857.833C1258.67 865.724 1282.29 879.719 1286.8 870.013L1298.5 815.883ZM1075.71 696.644C1089.96 692.982 1101.48 703.749 1101.39 711.856L1087.17 763.915C1082.66 773.621 1059.71 757.85 1060.32 749.959L1075.71 696.644ZM1056.52 680.874C1056.61 672.767 1045.09 662 1030.85 665.662L1015.45 718.978C1014.84 726.868 1037.79 742.64 1042.3 732.934L1056.52 680.874ZM981.793 633.299C996.038 629.638 1007.56 640.405 1007.47 648.512L993.246 700.571C988.738 710.277 965.79 694.506 966.399 686.615L981.793 633.299ZM958.333 617.201C958.422 609.094 946.902 598.327 932.657 601.989L917.263 655.305C916.653 663.195 939.601 678.966 944.11 669.26L958.333 617.201ZM891.076 570.203C905.321 566.541 916.841 577.308 916.752 585.415L902.529 637.474C898.021 647.18 875.072 631.409 875.682 623.518L891.076 570.203ZM868.684 554.187C868.773 546.08 857.252 535.312 843.007 538.974L827.613 592.29C827.004 600.181 849.952 615.952 854.46 606.246L868.684 554.187ZM747.683 465.997C761.928 462.335 773.448 473.102 773.359 481.209L759.136 533.268C754.627 542.974 731.679 527.203 732.289 519.312L747.683 465.997ZM678.099 407.393C678.188 399.286 676.459 385.516 654.158 390.567L639.333 436.519C638.724 444.409 661.284 465.201 665.793 455.495L678.099 407.393ZM608.794 352.139C631.095 347.088 632.824 360.858 632.735 368.965L620.428 417.067C615.92 426.773 593.359 405.981 593.968 398.091L608.794 352.139ZM586.302 330.455C586.391 322.348 584.662 308.578 562.362 313.629L547.536 359.58C546.927 367.471 569.487 388.263 573.996 378.557L586.302 330.455ZM469.416 237.66C491.717 232.609 493.446 246.379 493.357 254.486L481.05 302.588C476.542 312.294 453.981 291.502 454.591 283.611L469.416 237.66ZM406.755 179.825C406.844 171.718 401.446 156.766 379.146 161.818L361.199 206.47C360.589 214.36 385.778 235.884 390.287 226.178L406.755 179.825ZM327.294 123.947C349.595 118.896 354.992 133.847 354.903 141.954L338.435 188.308C333.927 198.014 308.738 176.49 309.347 168.599L327.294 123.947ZM308.389 104.496C308.478 96.3886 303.081 81.4373 280.781 86.4887L262.833 131.141C262.224 139.031 287.413 160.555 291.922 150.849L308.389 104.496Z" fill="#4A4A4A"/>
</g>
<path fill-rule="evenodd" clip-rule="evenodd" d="M1093.55 1188.9C1420.46 1357.55 1757.89 1369.14 1897.47 1348.88L1882.37 1414.25L1891.32 1372.84C1891.41 1364.73 1877.91 1358.76 1863.67 1362.42L1852.1 1414.79C1851.51 1422.5 1874.07 1436.05 1879.3 1427.58L1877.3 1436.22C1768.87 1454.13 1482.94 1459.55 1225.33 1346.19C1137.04 1307.33 881.841 1190.55 561.33 918.148C549.16 907.805 533.726 894.532 515.569 878.915L515.56 878.908C416.419 793.643 236.074 638.54 62.3322 509.199L85.9255 440.113C236.493 543.819 396.949 682.11 509.568 779.172L509.572 779.176L509.598 779.198C550.741 814.658 585.497 844.613 611.052 865.367C858.665 1066.45 1025.63 1153.86 1093.55 1188.9ZM115.565 480.502C137.865 475.45 143.263 490.401 143.174 498.509L126.706 544.862C122.197 554.568 97.0083 533.044 97.6176 525.154L115.565 480.502ZM328.64 648.987C328.729 640.879 327 627.109 304.7 632.16L289.874 678.112C289.265 686.002 311.825 706.794 316.334 697.088L328.64 648.987ZM397.708 707.317C420.009 702.265 421.738 716.036 421.649 724.143L409.342 772.244C404.834 781.951 382.273 761.158 382.883 753.268L397.708 707.317ZM606.091 873.979C606.18 865.872 594.66 855.105 580.415 858.767L565.02 912.083C564.411 919.973 587.359 935.744 591.868 926.038L606.091 873.979ZM677.367 931.527C691.613 927.865 703.133 938.632 703.044 946.739L688.82 998.799C684.312 1008.5 661.364 992.734 661.973 984.843L677.367 931.527ZM1034.44 1175.53C1034.53 1167.42 1023.01 1156.66 1008.76 1160.32L993.369 1213.63C992.76 1221.52 1015.71 1237.3 1020.22 1227.59L1034.44 1175.53ZM1056.09 1187.26C1070.33 1183.59 1081.85 1194.36 1081.77 1202.47L1067.54 1254.53C1063.03 1264.23 1040.09 1248.46 1040.7 1240.57L1056.09 1187.26ZM1130.91 1226.71C1131 1218.61 1117.5 1212.64 1103.25 1216.3L1091.69 1268.66C1091.08 1276.56 1114.7 1290.55 1119.21 1280.84L1130.91 1226.71ZM1357.01 1316.95C1371.25 1313.28 1384.76 1319.26 1384.67 1327.36L1372.97 1381.49C1368.46 1391.2 1344.84 1377.2 1345.45 1369.31L1357.01 1316.95ZM1831.79 1378.82C1831.88 1370.71 1818.38 1364.74 1804.13 1368.4L1792.57 1420.77C1791.96 1428.66 1815.58 1442.66 1820.09 1432.95L1831.79 1378.82ZM1772.74 1378.5C1772.83 1370.39 1759.33 1364.42 1745.09 1368.08L1733.52 1420.45C1732.91 1428.34 1756.54 1442.33 1761.04 1432.63L1772.74 1378.5ZM1690.23 1369.13C1704.47 1365.47 1717.97 1371.44 1717.89 1379.55L1706.19 1433.68C1701.68 1443.39 1678.06 1429.39 1678.67 1421.5L1690.23 1369.13ZM1659.16 1375.02C1659.25 1366.91 1645.75 1360.94 1631.51 1364.6L1619.94 1416.97C1619.33 1424.86 1642.96 1438.85 1647.47 1429.15L1659.16 1375.02ZM1572.78 1360.07C1587.03 1356.4 1600.53 1362.38 1600.44 1370.48L1588.74 1424.61C1584.23 1434.32 1560.61 1420.32 1561.22 1412.43L1572.78 1360.07ZM1550.59 1362.4C1550.67 1354.29 1537.17 1348.32 1522.93 1351.98L1511.37 1404.35C1510.76 1412.24 1534.38 1426.24 1538.89 1416.53L1550.59 1362.4ZM1468.88 1342.52C1483.13 1338.86 1496.63 1344.83 1496.54 1352.93L1484.84 1407.06C1480.33 1416.77 1456.71 1402.78 1457.32 1394.89L1468.88 1342.52ZM1438.63 1337.88C1438.72 1329.77 1425.22 1323.8 1410.97 1327.46L1399.41 1379.83C1398.8 1387.72 1422.42 1401.72 1426.93 1392.01L1438.63 1337.88ZM1307.8 1300.45C1322.05 1296.79 1335.55 1302.76 1335.46 1310.86L1323.76 1364.99C1319.25 1374.7 1295.63 1360.71 1296.24 1352.81L1307.8 1300.45ZM1282.23 1290.88C1282.32 1282.77 1268.82 1276.8 1254.57 1280.46L1243.01 1332.83C1242.4 1340.72 1266.02 1354.71 1270.53 1345.01L1282.23 1290.88ZM1205.77 1258.7C1220.02 1255.04 1233.52 1261.01 1233.43 1269.12L1221.73 1323.25C1217.22 1332.95 1193.6 1318.96 1194.21 1311.07L1205.77 1258.7ZM1180.28 1248.08C1180.37 1239.97 1166.86 1234 1152.62 1237.66L1141.06 1290.03C1140.45 1297.92 1164.07 1311.92 1168.58 1302.21L1180.28 1248.08ZM957.492 1128.84C971.737 1125.18 983.257 1135.95 983.168 1144.05L968.945 1196.11C964.437 1205.82 941.489 1190.05 942.098 1182.16L957.492 1128.84ZM938.303 1113.07C938.392 1104.97 926.872 1094.2 912.627 1097.86L897.232 1151.18C896.623 1159.07 919.571 1174.84 924.08 1165.13L938.303 1113.07ZM863.572 1065.5C877.817 1061.84 889.337 1072.6 889.248 1080.71L875.025 1132.77C870.516 1142.48 847.568 1126.7 848.177 1118.81L863.572 1065.5ZM840.112 1049.4C840.201 1041.29 828.681 1030.53 814.435 1034.19L799.041 1087.5C798.432 1095.39 821.38 1111.16 825.888 1101.46L840.112 1049.4ZM772.854 1002.4C787.1 998.739 798.62 1009.51 798.531 1017.61L784.308 1069.67C779.799 1079.38 756.851 1063.61 757.46 1055.72L772.854 1002.4ZM750.462 986.385C750.551 978.278 739.031 967.511 724.786 971.173L709.391 1024.49C708.782 1032.38 731.73 1048.15 736.239 1038.44L750.462 986.385ZM629.461 898.195C643.707 894.533 655.227 905.3 655.138 913.407L640.914 965.466C636.406 975.172 613.458 959.401 614.067 951.511L629.461 898.195ZM559.877 839.592C559.966 831.485 558.237 817.714 535.937 822.766L521.111 868.717C520.502 876.607 543.062 897.399 547.571 887.693L559.877 839.592ZM490.572 784.337C512.873 779.286 514.602 793.056 514.513 801.163L502.207 849.265C497.698 858.971 475.138 838.179 475.747 830.289L490.572 784.337ZM468.081 762.653C468.17 754.546 466.441 740.776 444.14 745.827L429.314 791.779C428.705 799.669 451.266 820.461 455.774 810.755L468.081 762.653ZM351.195 669.858C373.495 664.807 375.224 678.577 375.135 686.684L362.829 734.786C358.32 744.492 335.76 723.7 336.369 715.81L351.195 669.858ZM288.533 612.023C288.622 603.916 283.225 588.965 260.924 594.016L242.977 638.668C242.368 646.558 267.557 668.083 272.065 658.377L288.533 612.023ZM209.073 556.145C231.373 551.094 236.77 566.045 236.681 574.152L220.213 620.506C215.705 630.212 190.516 608.688 191.125 600.797L209.073 556.145ZM190.168 536.694C190.257 528.587 184.86 513.636 162.559 518.687L144.612 563.339C144.002 571.229 169.192 592.754 173.7 583.048L190.168 536.694Z" fill="#4A4A4A"/>
<defs>
<filter id="filter0_d_660_215" x="176.554" y="7.91455" width="1843.14" height="1013.99" filterUnits="userSpaceOnUse" color-interpolation-filters="sRGB">
<feFlood flood-opacity="0" result="BackgroundImageFix"/>
<feColorMatrix in="SourceAlpha" type="matrix" values="0 0 0 0 0 0 0 0 0 0 0 0 0 0 0 0 0 0 127 0" result="hardAlpha"/>
<feOffset dy="4"/>
<feGaussianBlur stdDeviation="2"/>
<feComposite in2="hardAlpha" operator="out"/>
<feColorMatrix type="matrix" values="0 0 0 0 0 0 0 0 0 0 0 0 0 0 0 0 0 0 0.25 0"/>
<feBlend mode="normal" in2="BackgroundImageFix" result="effect1_dropShadow_660_215"/>
<feBlend mode="normal" in="SourceGraphic" in2="effect1_dropShadow_660_215" result="shape"/>
</filter>
<linearGradient id="paint0_linear_660_215" x1="1731.25" y1="980.439" x2="1701.8" y2="1361.81" gradientUnits="userSpaceOnUse">
<stop stop-color="#D7EDF0"/>
<stop offset="1" stop-color="#509AA4"/>
</linearGradient>
<linearGradient id="paint1_linear_660_215" x1="1274.9" y1="798.093" x2="1236.07" y2="1300.98" gradientUnits="userSpaceOnUse">
<stop stop-color="#D7EDF0"/>
<stop offset="1" stop-color="#509AA4"/>
</linearGradient>
<linearGradient id="paint2_linear_660_215" x1="872.452" y1="526.246" x2="825.944" y2="1128.55" gradientUnits="userSpaceOnUse">
<stop stop-color="#D7EDF0"/>
<stop offset="1" stop-color="#509AA4"/>
</linearGradient>
<linearGradient id="paint3_linear_660_215" x1="491.63" y1="214.263" x2="442.563" y2="849.711" gradientUnits="userSpaceOnUse">
<stop stop-color="#D7EDF0"/>
<stop offset="1" stop-color="#509AA4"/>
</linearGradient>
<linearGradient id="paint4_linear_660_215" x1="227.961" y1="78.5456" x2="192.542" y2="537.246" gradientUnits="userSpaceOnUse">
<stop stop-color="#D7EDF0"/>
<stop offset="1" stop-color="#509AA4"/>
</linearGradient>
</defs>
</svg>
