<svg width="1852" height="1252" viewBox="0 0 1852 1252" fill="none" xmlns="http://www.w3.org/2000/svg">
<path d="M488 806.5L457.5 812L503 1155.5L543 1149L488 806.5Z" fill="#4A4A4A"/>
<path d="M885 660L861 674.5L912.5 1023L946.5 1011.5L885 660Z" fill="#4A4A4A"/>
<path d="M1258 430L1234 444.5L1307.5 789.5L1332.5 772.5L1258 430Z" fill="#4A4A4A"/>
<path d="M1620 161L1601 173.5L1692.5 513L1719.5 494L1620 161Z" fill="#4A4A4A"/>
<path d="M81.5 1145L16.5 810L31 807.5L53 813L112 820.5L156.5 826H203H249H320.5L463.5 813L512 1151L468.5 1160L373.5 1166L276.5 1170L203 1166L131 1160L81.5 1145Z" fill="url(#paint0_linear_660_128)"/>
<path d="M533.5 1146.5L481.5 810.5L582 783.5L700.5 741.5L866.5 668.5L923 1021L743.5 1095.5L533.5 1146.5Z" fill="url(#paint1_linear_660_128)"/>
<path d="M937.5 1013.5L881 661L991.5 600L1087 544.5L1241.5 441L1312 786.5L1293.5 802L1242 833.5L1226 843.5L1194.5 864.5L1161.5 888.5L1144 894.5L1133 902L1126 908.5L1081.5 934.5L1031.5 961L937.5 1013.5Z" fill="url(#paint2_linear_660_128)"/>
<path d="M1321.5 778L1252.5 434L1315.5 388.5L1389.5 331.5L1609 174L1694.5 510.5L1665 532L1546.5 616.5L1445.5 688.5L1321.5 778Z" fill="url(#paint3_linear_660_128)"/>
<path d="M1709.5 501L1622 165.5L1648.5 149L1661 140L1703.5 110.5L1772.5 65L1835.5 419.5L1709.5 501Z" fill="url(#paint4_linear_660_128)"/>
<g filter="url(#filter0_d_660_128)">
<path fill-rule="evenodd" clip-rule="evenodd" d="M764 634C447.5 769.5 132.5 755.833 4 726.5L13.3524 789.348L8 749.587C8.5 741.921 21.5 737.264 34.5 741.763L41.5 792.087C41.5 799.419 19.5188 810.574 15.2641 802.194L16.5 810.5C116.167 835.333 382 861.318 630 773C715 742.73 961 651 1279 417C1291.04 408.141 1306.31 396.766 1324.27 383.385L1324.32 383.352L1324.38 383.302L1324.42 383.275L1324.44 383.262C1422.87 309.93 1601.94 176.535 1773 67L1756 0C1608.36 87.0046 1449.02 205.966 1337.19 289.461L1337.18 289.463L1337.18 289.468C1296.31 319.978 1261.79 345.752 1236.5 363.5C991.5 535.437 829.757 605.848 764 634ZM1725.5 36C1705.1 29.6 1699 43.3333 1698.5 51L1710.5 96C1714 105.5 1739 87 1739 79.5L1725.5 36ZM1515 179.652C1515.5 171.985 1518.1 159.1 1538.5 165.5L1549 210C1549 217.5 1526.5 235.5 1523 226L1515 179.652ZM1446.5 229.728C1426.1 223.328 1423.5 236.213 1423 243.879L1431 290.228C1434.5 299.728 1457 281.728 1457 274.228L1446.5 229.728ZM1240.5 372C1241 364.333 1252.5 355 1265.5 359.499L1276 410.999C1276 418.499 1253.5 431.727 1250 422.227L1240.5 372ZM1170 421.176C1157 416.676 1145.5 426.009 1145 433.676L1154.5 483.903C1158 493.403 1180.5 480.176 1180.5 472.676L1170 421.176ZM820 625.676C820.5 618.009 832 608.676 845 613.176L855.5 664.676C855.5 672.176 833 685.403 829.5 675.903L820 625.676ZM799 635.176C786 630.676 774.5 640.009 774 647.676L783.5 697.903C787 707.403 809.5 694.176 809.5 686.676L799 635.176ZM726.5 667C727 659.333 740 654.676 753 659.176L760 709.5C760 717 737 728.5 733.5 719L726.5 667ZM509.5 735.763C496.5 731.264 483.5 735.921 483 743.587L490 795.587C493.5 805.087 516.5 793.587 516.5 786.087L509.5 735.763ZM63 759.587C63.5 751.921 76.5 747.264 89.5 751.763L96.5 802.087C96.5 809.587 73.5 821.087 70 811.587L63 759.587ZM118 763.587C118.5 755.921 131.5 751.264 144.5 755.763L151.5 806.087C151.5 813.587 128.5 825.087 125 815.587L118 763.587ZM195.5 760.763C182.5 756.264 169.5 760.921 169 768.587L176 820.587C179.5 830.087 202.5 818.587 202.5 811.087L195.5 760.763ZM224 768.587C224.5 760.921 237.5 756.264 250.5 760.763L257.5 811.087C257.5 818.587 234.5 830.087 231 820.587L224 768.587ZM305.5 760.763C292.5 756.264 279.5 760.921 279 768.587L286 820.587C289.5 830.087 312.5 818.587 312.5 811.087L305.5 760.763ZM326 764.587C326.5 756.921 339.5 752.264 352.5 756.763L359.5 807.087C359.5 814.587 336.5 826.087 333 816.587L326 764.587ZM403.5 751.763C390.5 747.264 377.5 751.921 377 759.587L384 811.587C387.5 821.087 410.5 809.587 410.5 802.087L403.5 751.763ZM432 749.587C432.5 741.921 445.5 737.264 458.5 741.763L465.5 792.087C465.5 799.587 442.5 811.087 439 801.587L432 749.587ZM556.5 723.763C543.5 719.264 530.5 723.921 530 731.587L537 783.587C540.5 793.087 563.5 781.587 563.5 774.087L556.5 723.763ZM581 716.587C581.5 708.921 594.5 704.264 607.5 708.763L614.5 759.087C614.5 766.587 591.5 778.087 588 768.587L581 716.587ZM654.5 691.763C641.5 687.264 628.5 691.921 628 699.587L635 751.587C638.5 761.087 661.5 749.587 661.5 742.087L654.5 691.763ZM679 683.587C679.5 675.921 692.5 671.264 705.5 675.763L712.5 726.087C712.5 733.587 689.5 745.087 686 735.587L679 683.587ZM895 587.176C882 582.676 870.5 592.009 870 599.676L879.5 649.903C883 659.403 905.5 646.176 905.5 638.676L895 587.176ZM914 573.676C914.5 566.009 926 556.676 939 561.176L949.5 612.676C949.5 620.176 927 633.403 923.5 623.903L914 573.676ZM987 534.176C974 529.676 962.5 539.009 962 546.676L971.5 596.903C975 606.403 997.5 593.176 997.5 585.676L987 534.176ZM1010 520.676C1010.5 513.009 1022 503.676 1035 508.176L1045.5 559.676C1045.5 567.176 1023 580.403 1019.5 570.903L1010 520.676ZM1076 481.176C1063 476.676 1051.5 486.009 1051 493.676L1060.5 543.903C1064 553.403 1086.5 540.176 1086.5 532.676L1076 481.176ZM1098 467.676C1098.5 460.009 1110 450.676 1123 455.176L1133.5 506.676C1133.5 514.176 1111 527.403 1107.5 517.903L1098 467.676ZM1217 393.176C1204 388.676 1192.5 398.009 1192 405.676L1201.5 455.903C1205 465.403 1227.5 452.176 1227.5 444.676L1217 393.176ZM1286 342.879C1286.5 335.213 1289.1 322.328 1309.5 328.728L1320 373.228C1320 380.728 1297.5 398.728 1294 389.228L1286 342.879ZM1354.5 295.728C1334.1 289.328 1331.5 302.213 1331 309.879L1339 356.228C1342.5 365.728 1365 347.728 1365 340.228L1354.5 295.728ZM1377 276.879C1377.5 269.213 1380.1 256.328 1400.5 262.728L1411 307.228C1411 314.728 1388.5 332.728 1385 323.228L1377 276.879ZM1492.5 197.728C1472.1 191.328 1469.5 204.213 1469 211.879L1477 258.228C1480.5 267.728 1503 249.728 1503 242.228L1492.5 197.728ZM1555 147.652C1555.5 139.985 1561.6 126.252 1582 132.652L1595.5 176.152C1595.5 183.652 1570.5 202.152 1567 192.652L1555 147.652ZM1633 100.652C1612.6 94.2518 1606.5 107.985 1606 115.652L1618 160.652C1621.5 170.152 1646.5 151.652 1646.5 144.152L1633 100.652ZM1652 83.6518C1652.5 75.9852 1658.6 62.2518 1679 68.6518L1692.5 112.152C1692.5 119.652 1667.5 138.152 1664 128.652L1652 83.6518Z" fill="#4A4A4A"/>
</g>
<path fill-rule="evenodd" clip-rule="evenodd" d="M843 1051C526.5 1186.5 211.5 1172.83 83 1143.5L92.3524 1206.35L87 1166.59C87.5 1158.92 100.5 1154.26 113.5 1158.76L120.5 1209.09C120.5 1216.42 98.5188 1227.57 94.2641 1219.19L95.5 1227.5C195.167 1252.33 461 1278.32 709 1190C794 1159.73 1040 1068 1358 834C1370.04 825.141 1385.31 813.766 1403.27 800.385L1403.32 800.352L1403.38 800.302L1403.42 800.275L1403.44 800.262C1501.87 726.93 1680.94 593.535 1852 484L1835 417C1687.36 504.005 1528.02 622.966 1416.19 706.461L1416.18 706.463L1416.18 706.468C1375.31 736.978 1340.79 762.752 1315.5 780.5C1070.5 952.437 908.757 1022.85 843 1051ZM1804.5 453C1784.1 446.6 1778 460.333 1777.5 468L1789.5 513C1793 522.5 1818 504 1818 496.5L1804.5 453ZM1594 596.652C1594.5 588.985 1597.1 576.1 1617.5 582.5L1628 627C1628 634.5 1605.5 652.5 1602 643L1594 596.652ZM1525.5 646.728C1505.1 640.328 1502.5 653.213 1502 660.879L1510 707.228C1513.5 716.728 1536 698.728 1536 691.228L1525.5 646.728ZM1319.5 789C1320 781.333 1331.5 772 1344.5 776.499L1355 827.999C1355 835.499 1332.5 848.727 1329 839.227L1319.5 789ZM1249 838.176C1236 833.676 1224.5 843.009 1224 850.676L1233.5 900.903C1237 910.403 1259.5 897.176 1259.5 889.676L1249 838.176ZM899 1042.68C899.5 1035.01 911 1025.68 924 1030.18L934.5 1081.68C934.5 1089.18 912 1102.4 908.5 1092.9L899 1042.68ZM878 1052.18C865 1047.68 853.5 1057.01 853 1064.68L862.5 1114.9C866 1124.4 888.5 1111.18 888.5 1103.68L878 1052.18ZM805.5 1084C806 1076.33 819 1071.68 832 1076.18L839 1126.5C839 1134 816 1145.5 812.5 1136L805.5 1084ZM588.5 1152.76C575.5 1148.26 562.5 1152.92 562 1160.59L569 1212.59C572.5 1222.09 595.5 1210.59 595.5 1203.09L588.5 1152.76ZM142 1176.59C142.5 1168.92 155.5 1164.26 168.5 1168.76L175.5 1219.09C175.5 1226.59 152.5 1238.09 149 1228.59L142 1176.59ZM197 1180.59C197.5 1172.92 210.5 1168.26 223.5 1172.76L230.5 1223.09C230.5 1230.59 207.5 1242.09 204 1232.59L197 1180.59ZM274.5 1177.76C261.5 1173.26 248.5 1177.92 248 1185.59L255 1237.59C258.5 1247.09 281.5 1235.59 281.5 1228.09L274.5 1177.76ZM303 1185.59C303.5 1177.92 316.5 1173.26 329.5 1177.76L336.5 1228.09C336.5 1235.59 313.5 1247.09 310 1237.59L303 1185.59ZM384.5 1177.76C371.5 1173.26 358.5 1177.92 358 1185.59L365 1237.59C368.5 1247.09 391.5 1235.59 391.5 1228.09L384.5 1177.76ZM405 1181.59C405.5 1173.92 418.5 1169.26 431.5 1173.76L438.5 1224.09C438.5 1231.59 415.5 1243.09 412 1233.59L405 1181.59ZM482.5 1168.76C469.5 1164.26 456.5 1168.92 456 1176.59L463 1228.59C466.5 1238.09 489.5 1226.59 489.5 1219.09L482.5 1168.76ZM511 1166.59C511.5 1158.92 524.5 1154.26 537.5 1158.76L544.5 1209.09C544.5 1216.59 521.5 1228.09 518 1218.59L511 1166.59ZM635.5 1140.76C622.5 1136.26 609.5 1140.92 609 1148.59L616 1200.59C619.5 1210.09 642.5 1198.59 642.5 1191.09L635.5 1140.76ZM660 1133.59C660.5 1125.92 673.5 1121.26 686.5 1125.76L693.5 1176.09C693.5 1183.59 670.5 1195.09 667 1185.59L660 1133.59ZM733.5 1108.76C720.5 1104.26 707.5 1108.92 707 1116.59L714 1168.59C717.5 1178.09 740.5 1166.59 740.5 1159.09L733.5 1108.76ZM758 1100.59C758.5 1092.92 771.5 1088.26 784.5 1092.76L791.5 1143.09C791.5 1150.59 768.5 1162.09 765 1152.59L758 1100.59ZM974 1004.18C961 999.676 949.5 1009.01 949 1016.68L958.5 1066.9C962 1076.4 984.5 1063.18 984.5 1055.68L974 1004.18ZM993 990.676C993.5 983.009 1005 973.676 1018 978.176L1028.5 1029.68C1028.5 1037.18 1006 1050.4 1002.5 1040.9L993 990.676ZM1066 951.176C1053 946.676 1041.5 956.009 1041 963.676L1050.5 1013.9C1054 1023.4 1076.5 1010.18 1076.5 1002.68L1066 951.176ZM1089 937.676C1089.5 930.009 1101 920.676 1114 925.176L1124.5 976.676C1124.5 984.176 1102 997.403 1098.5 987.903L1089 937.676ZM1155 898.176C1142 893.676 1130.5 903.009 1130 910.676L1139.5 960.903C1143 970.403 1165.5 957.176 1165.5 949.676L1155 898.176ZM1177 884.676C1177.5 877.009 1189 867.676 1202 872.176L1212.5 923.676C1212.5 931.176 1190 944.403 1186.5 934.903L1177 884.676ZM1296 810.176C1283 805.676 1271.5 815.009 1271 822.676L1280.5 872.903C1284 882.403 1306.5 869.176 1306.5 861.676L1296 810.176ZM1365 759.879C1365.5 752.213 1368.1 739.328 1388.5 745.728L1399 790.228C1399 797.728 1376.5 815.728 1373 806.228L1365 759.879ZM1433.5 712.728C1413.1 706.328 1410.5 719.213 1410 726.879L1418 773.228C1421.5 782.728 1444 764.728 1444 757.228L1433.5 712.728ZM1456 693.879C1456.5 686.213 1459.1 673.328 1479.5 679.728L1490 724.228C1490 731.728 1467.5 749.728 1464 740.228L1456 693.879ZM1571.5 614.728C1551.1 608.328 1548.5 621.213 1548 628.879L1556 675.228C1559.5 684.728 1582 666.728 1582 659.228L1571.5 614.728ZM1634 564.652C1634.5 556.985 1640.6 543.252 1661 549.652L1674.5 593.152C1674.5 600.652 1649.5 619.152 1646 609.652L1634 564.652ZM1712 517.652C1691.6 511.252 1685.5 524.985 1685 532.652L1697 577.652C1700.5 587.152 1725.5 568.652 1725.5 561.152L1712 517.652ZM1731 500.652C1731.5 492.985 1737.6 479.252 1758 485.652L1771.5 529.152C1771.5 536.652 1746.5 555.152 1743 545.652L1731 500.652Z" fill="#4A4A4A"/>
<defs>
<filter id="filter0_d_660_128" x="0" y="0" width="1777" height="842.293" filterUnits="userSpaceOnUse" color-interpolation-filters="sRGB">
<feFlood flood-opacity="0" result="BackgroundImageFix"/>
<feColorMatrix in="SourceAlpha" type="matrix" values="0 0 0 0 0 0 0 0 0 0 0 0 0 0 0 0 0 0 127 0" result="hardAlpha"/>
<feOffset dy="4"/>
<feGaussianBlur stdDeviation="2"/>
<feComposite in2="hardAlpha" operator="out"/>
<feColorMatrix type="matrix" values="0 0 0 0 0 0 0 0 0 0 0 0 0 0 0 0 0 0 0.25 0"/>
<feBlend mode="normal" in2="BackgroundImageFix" result="effect1_dropShadow_660_128"/>
<feBlend mode="normal" in="SourceGraphic" in2="effect1_dropShadow_660_128" result="shape"/>
</filter>
<linearGradient id="paint0_linear_660_128" x1="264.25" y1="807.5" x2="264.25" y2="1170" gradientUnits="userSpaceOnUse">
<stop stop-color="#D7EDF0"/>
<stop offset="1" stop-color="#509AA4"/>
</linearGradient>
<linearGradient id="paint1_linear_660_128" x1="702.25" y1="668.5" x2="702.25" y2="1146.5" gradientUnits="userSpaceOnUse">
<stop stop-color="#D7EDF0"/>
<stop offset="1" stop-color="#509AA4"/>
</linearGradient>
<linearGradient id="paint2_linear_660_128" x1="1096.5" y1="441" x2="1096.5" y2="1013.5" gradientUnits="userSpaceOnUse">
<stop stop-color="#D7EDF0"/>
<stop offset="1" stop-color="#509AA4"/>
</linearGradient>
<linearGradient id="paint3_linear_660_128" x1="1473.5" y1="174" x2="1473.5" y2="778" gradientUnits="userSpaceOnUse">
<stop stop-color="#D7EDF0"/>
<stop offset="1" stop-color="#509AA4"/>
</linearGradient>
<linearGradient id="paint4_linear_660_128" x1="1728.75" y1="65" x2="1728.75" y2="501" gradientUnits="userSpaceOnUse">
<stop stop-color="#D7EDF0"/>
<stop offset="1" stop-color="#509AA4"/>
</linearGradient>
</defs>
</svg>
