<svg width="2291" height="1868" viewBox="0 0 2291 1868" fill="none" xmlns="http://www.w3.org/2000/svg">
<path d="M638.847 969.901L605.992 965.326L540.303 1325.1L583.159 1331.81L638.847 969.901Z" fill="#4A4A4A"/>
<path d="M1090.94 954.28L1061.77 960.888L1000.56 1327.66L1038.94 1327.38L1090.94 954.28Z" fill="#4A4A4A"/>
<path d="M1545.82 846.921L1516.65 853.529L1478.99 1224.07L1509.99 1215.29L1545.82 846.921Z" fill="#4A4A4A"/>
<path d="M2002.22 696.783L1978.79 703.039L1961.25 1074.02L1994.95 1063.89L2002.22 696.783Z" fill="#4A4A4A"/>
<path d="M114.463 1175.06L157.521 817.36L173.104 819.651L193.715 832.452L251.356 859.505L294.882 879.753L342.238 895.143L389.086 910.368L461.903 934.033L611.776 968.316L550.936 1323.56L503.7 1318.2L404.993 1292.78L304.902 1264.68L231.352 1236.34L159.983 1206.49L114.463 1175.06Z" fill="url(#paint0_linear_660_129)"/>
<path d="M574.3 1326.16L630.923 971.765L742.08 977.932L876.461 975.004L1069.33 956.688L1011.9 1329.13L804.801 1344.49L574.3 1326.16Z" fill="url(#paint1_linear_660_129)"/>
<path d="M1029.12 1326.41L1086.54 953.96L1218.97 929.317L1334.33 905.229L1525.43 852.499L1484.55 1222.55L1460.65 1231.98L1397.93 1246.55L1378.37 1251.29L1339.45 1261.94L1298.01 1275.1L1278.23 1275.33L1264.58 1279.22L1255.33 1283.42L1201.53 1294.79L1141.97 1304.83L1029.12 1326.41Z" fill="url(#paint2_linear_660_129)"/>
<path d="M1497 1217.17L1538.91 849.115L1617.91 824.305L1711.87 791.596L1986.78 706.188L1964.11 1072.17L1927.05 1083.99L1778.81 1129.57L1652.47 1168.39L1497 1217.17Z" fill="url(#paint3_linear_660_129)"/>
<path d="M1982.48 1067.61L2002.79 701.961L2035.16 694.173L2050.82 689.279L2103.73 673.741L2188.84 650.917L2137.38 1027.52L1982.48 1067.61Z" fill="url(#paint4_linear_660_129)"/>
<g filter="url(#filter0_d_660_129)">
<path fill-rule="evenodd" clip-rule="evenodd" d="M976.19 888.141C609.669 919.366 293.323 801.395 172.023 729.428L161.052 795.588L168.567 753.921C171.577 746.393 186.335 746.022 198.107 754.84L188.823 807.659C186.432 815.017 160.409 818.936 158.808 809.118L157.358 817.862C250.762 875.77 513.017 989.83 794.389 983.281C890.827 981.037 1171.27 970.402 1571.45 840.825C1586.64 835.905 1605.97 829.521 1628.71 822.01L1628.72 822.006C1752.89 780.996 1978.76 706.394 2188.69 653.09L2193.23 580.227C2014.49 618.672 1813.42 685.318 1672.3 732.094L1672.29 732.096L1672.26 732.106C1620.71 749.195 1577.15 763.631 1545.61 773.07C1240.03 864.526 1052.34 881.653 976.19 888.141ZM2150.43 606.259C2131.74 593.085 2121.05 604.848 2118.04 612.376L2115.58 661.507C2116.05 672.199 2147.54 661.908 2149.99 654.381L2150.43 606.259ZM1889.2 680.749C1892.21 673.22 1899.06 661.15 1917.75 674.325L1913.93 722.457C1911.48 729.983 1882.7 740.6 1882.23 729.908L1889.2 680.749ZM1803.11 708.329C1784.42 695.155 1777.57 707.225 1774.56 714.753L1767.59 763.913C1768.06 774.605 1796.84 763.988 1799.29 756.462L1803.11 708.329ZM1546.91 782.924C1549.92 775.395 1564.68 769.836 1576.45 778.654L1570.35 833.811C1567.9 841.337 1540.67 847.165 1540.21 836.473L1546.91 782.924ZM1459.08 808.94C1447.31 800.122 1432.55 805.681 1429.54 813.21L1422.83 866.759C1423.3 877.451 1450.53 871.623 1452.98 864.097L1459.08 808.94ZM1035.94 898.322C1038.95 890.794 1053.7 885.234 1065.47 894.052L1059.37 949.209C1056.92 956.736 1029.7 962.563 1029.23 951.871L1035.94 898.322ZM1011.45 900.905C999.679 892.087 984.923 897.646 981.914 905.175L975.208 958.724C975.674 969.416 1002.9 963.588 1005.35 956.062L1011.45 900.905ZM927.237 908.846C930.246 901.318 945.005 900.947 956.777 909.765L947.493 962.584C945.047 970.11 917.873 974.038 917.407 963.346L927.237 908.846ZM683.813 906.031C672.041 897.213 657.283 897.584 654.273 905.112L644.443 959.612C644.91 970.304 672.084 966.376 674.53 958.85L683.813 906.031ZM221.319 782.16C224.328 774.632 239.087 774.26 250.859 783.078L241.575 835.897C239.129 843.424 211.955 847.352 211.489 836.66L221.319 782.16ZM276.027 804.377C279.037 796.849 293.795 796.478 305.567 805.296L296.284 858.115C293.838 865.642 266.663 869.57 266.197 858.878L276.027 804.377ZM355.876 827.193C344.104 818.375 329.346 818.746 326.336 826.275L316.506 880.775C316.972 891.467 344.146 887.539 346.592 880.012L355.876 827.193ZM382.349 844.478C385.359 836.95 400.117 836.579 411.889 845.397L402.606 898.216C400.16 905.742 372.985 909.671 372.519 898.979L382.349 844.478ZM467.902 863.6C456.13 854.782 441.372 855.153 438.362 862.682L428.532 917.182C428.999 927.874 456.173 923.946 458.619 916.419L467.902 863.6ZM487.533 874.223C490.542 866.695 505.301 866.324 517.073 875.142L507.789 927.961C505.343 935.488 478.169 939.416 477.703 928.724L487.533 874.223ZM570.643 887.004C558.871 878.186 544.112 878.557 541.103 886.085L531.273 940.586C531.739 951.277 558.913 947.349 561.359 939.823L570.643 887.004ZM600.377 894.253C603.387 886.725 618.145 886.354 629.917 895.172L620.633 947.991C618.187 955.517 591.013 959.446 590.547 948.754L600.377 894.253ZM735.593 909.544C723.821 900.726 709.062 901.097 706.053 908.625L696.223 963.126C696.689 973.818 723.863 969.89 726.309 962.363L735.593 909.544ZM762.884 910.452C765.894 902.924 780.652 902.553 792.424 911.371L783.14 964.189C780.694 971.716 753.52 975.644 753.054 964.952L762.884 910.452ZM845.834 909.866C834.062 901.048 819.304 901.419 816.294 908.948L806.464 963.448C806.93 974.14 834.105 970.212 836.551 962.685L845.834 909.866ZM873.452 909.771C876.461 902.243 891.22 901.872 902.992 910.69L893.708 963.509C891.262 971.035 864.088 974.963 863.622 964.271L873.452 909.771ZM1124.87 884.509C1113.1 875.691 1098.35 881.25 1095.34 888.779L1088.63 942.328C1089.1 953.02 1116.33 947.192 1118.77 939.666L1124.87 884.509ZM1148.63 877.249C1151.64 869.721 1166.39 864.161 1178.16 872.979L1172.06 928.136C1169.62 935.663 1142.39 941.49 1141.92 930.798L1148.63 877.249ZM1235.85 861.771C1224.08 852.953 1209.33 858.513 1206.32 866.041L1199.61 919.59C1200.08 930.282 1227.31 924.454 1229.75 916.928L1235.85 861.771ZM1263.68 855.836C1266.69 848.308 1281.45 842.748 1293.22 851.566L1287.11 906.723C1284.67 914.25 1257.44 920.077 1256.97 909.385L1263.68 855.836ZM1343.78 838.04C1332.01 829.222 1317.25 834.782 1314.24 842.31L1307.53 895.859C1308 906.551 1335.23 900.724 1337.68 893.197L1343.78 838.04ZM1370.59 831.774C1373.6 824.246 1388.35 818.686 1400.12 827.504L1394.02 882.661C1391.57 890.188 1364.35 896.015 1363.88 885.323L1370.59 831.774ZM1516.08 796.396C1504.3 787.578 1489.55 793.138 1486.54 800.667L1479.83 854.215C1480.3 864.907 1507.53 859.08 1509.97 851.554L1516.08 796.396ZM1602.75 768.76C1605.76 761.232 1612.61 749.161 1631.3 762.336L1627.48 810.468C1625.03 817.995 1596.25 828.612 1595.78 817.92L1602.75 768.76ZM1687.89 744.113C1669.2 730.938 1662.35 743.009 1659.34 750.537L1652.37 799.697C1652.84 810.389 1681.62 799.772 1684.07 792.245L1687.89 744.113ZM1716.95 732.645C1719.96 725.117 1726.81 713.047 1745.5 726.221L1741.68 774.354C1739.23 781.88 1710.45 792.497 1709.98 781.805L1716.95 732.645ZM1860.39 691.441C1841.7 678.267 1834.85 690.337 1831.84 697.865L1824.88 747.025C1825.34 757.717 1854.13 747.1 1856.57 739.574L1860.39 691.441ZM1940.37 661.875C1943.38 654.346 1954.08 642.583 1972.76 655.758L1972.33 703.88C1969.88 711.406 1938.39 721.697 1937.92 711.005L1940.37 661.875ZM2035.14 640.524C2016.45 627.35 2005.76 639.113 2002.75 646.641L2000.3 695.772C2000.76 706.464 2032.26 696.173 2034.7 688.646L2035.14 640.524ZM2060.03 629.753C2063.04 622.225 2073.74 610.462 2092.42 623.636L2091.99 671.758C2089.54 679.284 2058.05 689.575 2057.58 678.883L2060.03 629.753Z" fill="#4A4A4A"/>
</g>
<path fill-rule="evenodd" clip-rule="evenodd" d="M920.647 1332.76C554.125 1363.99 237.78 1246.01 116.48 1174.05L105.503 1240.24L113.024 1198.54C116.034 1191.01 130.792 1190.64 142.564 1199.46L133.281 1252.28C130.889 1259.64 104.863 1263.56 103.265 1253.74L101.815 1262.48C195.218 1320.39 457.474 1434.45 738.846 1427.9C835.284 1425.66 1115.73 1415.02 1515.9 1285.44C1531.1 1280.52 1550.43 1274.14 1573.17 1266.63L1573.18 1266.63C1697.35 1225.62 1923.21 1151.01 2133.15 1097.71L2137.69 1024.85C1958.95 1063.29 1757.88 1129.94 1616.76 1176.71L1616.75 1176.72L1616.72 1176.73C1565.16 1193.81 1521.61 1208.25 1490.07 1217.69C1184.48 1309.15 996.797 1326.27 920.647 1332.76ZM2094.89 1050.88C2076.2 1037.7 2065.51 1049.47 2062.5 1057L2060.04 1106.13C2060.51 1116.82 2092 1106.53 2094.45 1099L2094.89 1050.88ZM1833.66 1125.37C1836.67 1117.84 1843.52 1105.77 1862.21 1118.94L1858.39 1167.08C1855.94 1174.6 1827.16 1185.22 1826.69 1174.53L1833.66 1125.37ZM1747.57 1152.95C1728.88 1139.77 1722.03 1151.84 1719.02 1159.37L1712.05 1208.53C1712.52 1219.22 1741.3 1208.61 1743.75 1201.08L1747.57 1152.95ZM1491.37 1227.54C1494.38 1220.02 1509.14 1214.46 1520.91 1223.27L1514.81 1278.43C1512.36 1285.96 1485.13 1291.78 1484.67 1281.09L1491.37 1227.54ZM1403.53 1253.56C1391.76 1244.74 1377.01 1250.3 1374 1257.83L1367.29 1311.38C1367.76 1322.07 1394.99 1316.24 1397.43 1308.72L1403.53 1253.56ZM980.393 1342.94C983.402 1335.41 998.158 1329.85 1009.93 1338.67L1003.83 1393.83C1001.38 1401.36 974.153 1407.18 973.687 1396.49L980.393 1342.94ZM955.908 1345.52C944.136 1336.71 929.38 1342.27 926.371 1349.79L919.665 1403.34C920.131 1414.04 947.359 1408.21 949.805 1400.68L955.908 1345.52ZM871.694 1353.47C874.703 1345.94 889.461 1345.57 901.234 1354.38L891.95 1407.2C889.504 1414.73 862.33 1418.66 861.864 1407.97L871.694 1353.47ZM628.27 1350.65C616.498 1341.83 601.74 1342.2 598.73 1349.73L588.9 1404.23C589.367 1414.92 616.541 1411 618.987 1403.47L628.27 1350.65ZM165.776 1226.78C168.786 1219.25 183.544 1218.88 195.316 1227.7L186.032 1280.52C183.586 1288.04 156.412 1291.97 155.946 1281.28L165.776 1226.78ZM220.485 1249C223.494 1241.47 238.253 1241.1 250.025 1249.92L240.741 1302.73C238.295 1310.26 211.121 1314.19 210.655 1303.5L220.485 1249ZM300.333 1271.81C288.561 1263 273.803 1263.37 270.793 1270.89L260.963 1325.39C261.429 1336.09 288.604 1332.16 291.05 1324.63L300.333 1271.81ZM326.806 1289.1C329.816 1281.57 344.574 1281.2 356.346 1290.02L347.063 1342.84C344.617 1350.36 317.442 1354.29 316.976 1343.6L326.806 1289.1ZM412.359 1308.22C400.587 1299.4 385.829 1299.77 382.819 1307.3L372.989 1361.8C373.455 1372.49 400.63 1368.57 403.076 1361.04L412.359 1308.22ZM431.99 1318.84C434.999 1311.31 449.758 1310.94 461.53 1319.76L452.246 1372.58C449.8 1380.11 422.626 1384.04 422.16 1373.34L431.99 1318.84ZM515.1 1331.62C503.328 1322.81 488.569 1323.18 485.56 1330.7L475.73 1385.21C476.196 1395.9 503.37 1391.97 505.816 1384.44L515.1 1331.62ZM544.834 1338.87C547.844 1331.34 562.602 1330.97 574.374 1339.79L565.09 1392.61C562.644 1400.14 535.47 1404.07 535.004 1393.37L544.834 1338.87ZM680.05 1354.16C668.278 1345.35 653.519 1345.72 650.51 1353.25L640.68 1407.75C641.146 1418.44 668.32 1414.51 670.766 1406.98L680.05 1354.16ZM707.341 1355.07C710.351 1347.54 725.109 1347.17 736.881 1355.99L727.597 1408.81C725.151 1416.34 697.977 1420.26 697.511 1409.57L707.341 1355.07ZM790.291 1354.49C778.519 1345.67 763.761 1346.04 760.751 1353.57L750.921 1408.07C751.387 1418.76 778.562 1414.83 781.008 1407.3L790.291 1354.49ZM817.909 1354.39C820.918 1346.86 835.677 1346.49 847.449 1355.31L838.165 1408.13C835.719 1415.65 808.545 1419.58 808.079 1408.89L817.909 1354.39ZM1069.33 1329.13C1057.56 1320.31 1042.8 1325.87 1039.79 1333.4L1033.09 1386.95C1033.55 1397.64 1060.78 1391.81 1063.23 1384.29L1069.33 1329.13ZM1093.08 1321.87C1096.09 1314.34 1110.85 1308.78 1122.62 1317.6L1116.52 1372.76C1114.07 1380.28 1086.84 1386.11 1086.38 1375.42L1093.08 1321.87ZM1180.31 1306.39C1168.54 1297.57 1153.78 1303.13 1150.77 1310.66L1144.07 1364.21C1144.53 1374.9 1171.76 1369.07 1174.21 1361.55L1180.31 1306.39ZM1208.14 1300.46C1211.15 1292.93 1225.9 1287.37 1237.67 1296.19L1231.57 1351.34C1229.13 1358.87 1201.9 1364.7 1201.43 1354L1208.14 1300.46ZM1288.23 1282.66C1276.46 1273.84 1261.71 1279.4 1258.7 1286.93L1251.99 1340.48C1252.46 1351.17 1279.69 1345.34 1282.13 1337.82L1288.23 1282.66ZM1315.04 1276.39C1318.05 1268.87 1332.81 1263.31 1344.58 1272.12L1338.48 1327.28C1336.03 1334.81 1308.8 1340.63 1308.34 1329.94L1315.04 1276.39ZM1460.53 1241.02C1448.76 1232.2 1434 1237.76 1430.99 1245.29L1424.29 1298.84C1424.75 1309.53 1451.98 1303.7 1454.43 1296.17L1460.53 1241.02ZM1547.21 1213.38C1550.22 1205.85 1557.07 1193.78 1575.75 1206.96L1571.94 1255.09C1569.49 1262.61 1540.7 1273.23 1540.24 1262.54L1547.21 1213.38ZM1632.35 1188.73C1613.66 1175.56 1606.81 1187.63 1603.8 1195.16L1596.83 1244.32C1597.3 1255.01 1626.08 1244.39 1628.53 1236.87L1632.35 1188.73ZM1661.41 1177.27C1664.42 1169.74 1671.27 1157.67 1689.96 1170.84L1686.14 1218.97C1683.69 1226.5 1654.91 1237.12 1654.44 1226.42L1661.41 1177.27ZM1804.85 1136.06C1786.16 1122.89 1779.31 1134.96 1776.3 1142.48L1769.33 1191.64C1769.8 1202.34 1798.58 1191.72 1801.03 1184.19L1804.85 1136.06ZM1884.83 1106.49C1887.84 1098.97 1898.53 1087.2 1917.22 1100.38L1916.78 1148.5C1914.34 1156.03 1882.84 1166.32 1882.38 1155.62L1884.83 1106.49ZM1979.6 1085.14C1960.91 1071.97 1950.22 1083.73 1947.21 1091.26L1944.75 1140.39C1945.22 1151.08 1976.71 1140.79 1979.16 1133.27L1979.6 1085.14ZM2004.49 1074.37C2007.5 1066.84 2018.19 1055.08 2036.88 1068.26L2036.44 1116.38C2034 1123.9 2002.5 1134.2 2002.04 1123.5L2004.49 1074.37Z" fill="#4A4A4A"/>
<defs>
<filter id="filter0_d_660_129" x="153.358" y="580.227" width="2043.87" height="411.325" filterUnits="userSpaceOnUse" color-interpolation-filters="sRGB">
<feFlood flood-opacity="0" result="BackgroundImageFix"/>
<feColorMatrix in="SourceAlpha" type="matrix" values="0 0 0 0 0 0 0 0 0 0 0 0 0 0 0 0 0 0 127 0" result="hardAlpha"/>
<feOffset dy="4"/>
<feGaussianBlur stdDeviation="2"/>
<feComposite in2="hardAlpha" operator="out"/>
<feColorMatrix type="matrix" values="0 0 0 0 0 0 0 0 0 0 0 0 0 0 0 0 0 0 0.25 0"/>
<feBlend mode="normal" in2="BackgroundImageFix" result="effect1_dropShadow_660_129"/>
<feBlend mode="normal" in="SourceGraphic" in2="effect1_dropShadow_660_129" result="shape"/>
</filter>
<linearGradient id="paint0_linear_660_129" x1="410.65" y1="896.85" x2="292.426" y2="1260.63" gradientUnits="userSpaceOnUse">
<stop stop-color="#D7EDF0"/>
<stop offset="1" stop-color="#509AA4"/>
</linearGradient>
<linearGradient id="paint1_linear_660_129" x1="902.051" y1="902.325" x2="746.158" y2="1382.01" gradientUnits="userSpaceOnUse">
<stop stop-color="#D7EDF0"/>
<stop offset="1" stop-color="#509AA4"/>
</linearGradient>
<linearGradient id="paint2_linear_660_129" x1="1377.76" y1="804.508" x2="1191.05" y2="1379.03" gradientUnits="userSpaceOnUse">
<stop stop-color="#D7EDF0"/>
<stop offset="1" stop-color="#509AA4"/>
</linearGradient>
<linearGradient id="paint3_linear_660_129" x1="1848.78" y1="661.341" x2="1651.8" y2="1267.47" gradientUnits="userSpaceOnUse">
<stop stop-color="#D7EDF0"/>
<stop offset="1" stop-color="#509AA4"/>
</linearGradient>
<linearGradient id="paint4_linear_660_129" x1="2144.28" y1="636.437" x2="2002.09" y2="1073.98" gradientUnits="userSpaceOnUse">
<stop stop-color="#D7EDF0"/>
<stop offset="1" stop-color="#509AA4"/>
</linearGradient>
</defs>
</svg>
